<svg xmlns="http://www.w3.org/2000/svg" xmlns:xlink="http://www.w3.org/1999/xlink" width="540" zoomAndPan="magnify" viewBox="0 0 404.88 359.999987" height="480" preserveAspectRatio="xMidYMid meet" version="1.0"><defs><clipPath id="cfbda3f845"><path d="M 20.347656 63.5625 L 384.738281 63.5625 L 384.738281 359.945312 L 20.347656 359.945312 Z M 20.347656 63.5625 " clip-rule="nonzero"/></clipPath><clipPath id="8d02a5df33"><path d="M 59.710938 190 L 141 190 L 141 192 L 59.710938 192 Z M 59.710938 190 " clip-rule="nonzero"/></clipPath></defs><g clip-path="url(#cfbda3f845)"><path fill="#010101" d="M 202.542969 63.5625 C 101.917969 63.5625 20.347656 145.132812 20.347656 245.757812 C 20.347656 346.382812 101.917969 427.953125 202.542969 427.953125 C 303.167969 427.953125 384.738281 346.382812 384.738281 245.757812 C 384.738281 145.132812 303.167969 63.5625 202.542969 63.5625 " fill-opacity="1" fill-rule="nonzero"/></g><path fill="#a0616a" d="M 241.699219 154.179688 C 241.699219 155.035156 241.65625 155.894531 241.574219 156.75 C 241.488281 157.601562 241.363281 158.453125 241.195312 159.292969 C 241.027344 160.136719 240.820312 160.96875 240.570312 161.789062 C 240.320312 162.613281 240.03125 163.421875 239.703125 164.214844 C 239.375 165.007812 239.007812 165.78125 238.601562 166.539062 C 238.195312 167.296875 237.753906 168.035156 237.277344 168.746094 C 236.800781 169.460938 236.289062 170.152344 235.742188 170.816406 C 235.195312 171.480469 234.621094 172.113281 234.011719 172.722656 C 233.40625 173.328125 232.769531 173.90625 232.105469 174.449219 C 231.441406 174.996094 230.75 175.507812 230.035156 175.984375 C 229.320312 176.460938 228.582031 176.902344 227.824219 177.304688 C 227.066406 177.710938 226.292969 178.078125 225.496094 178.40625 C 224.703125 178.734375 223.894531 179.023438 223.070312 179.273438 C 222.25 179.523438 221.417969 179.730469 220.574219 179.898438 C 219.730469 180.066406 218.882812 180.191406 218.027344 180.277344 C 217.171875 180.359375 216.3125 180.402344 215.453125 180.402344 C 214.59375 180.402344 213.734375 180.359375 212.878906 180.277344 C 212.023438 180.191406 211.175781 180.066406 210.332031 179.898438 C 209.488281 179.730469 208.65625 179.523438 207.832031 179.273438 C 207.011719 179.023438 206.203125 178.734375 205.410156 178.40625 C 204.613281 178.078125 203.839844 177.710938 203.082031 177.304688 C 202.320312 176.902344 201.585938 176.460938 200.871094 175.984375 C 200.15625 175.507812 199.464844 174.996094 198.800781 174.449219 C 198.136719 173.90625 197.5 173.328125 196.894531 172.722656 C 196.285156 172.113281 195.710938 171.480469 195.164062 170.816406 C 194.617188 170.152344 194.105469 169.460938 193.628906 168.746094 C 193.152344 168.035156 192.710938 167.296875 192.304688 166.539062 C 191.898438 165.78125 191.53125 165.007812 191.203125 164.214844 C 190.875 163.421875 190.585938 162.613281 190.335938 161.789062 C 190.085938 160.96875 189.878906 160.136719 189.710938 159.292969 C 189.542969 158.453125 189.417969 157.601562 189.332031 156.75 C 189.25 155.894531 189.207031 155.035156 189.207031 154.179688 C 189.207031 153.320312 189.25 152.460938 189.332031 151.605469 C 189.417969 150.753906 189.542969 149.902344 189.710938 149.0625 C 189.878906 148.21875 190.085938 147.386719 190.335938 146.566406 C 190.585938 145.742188 190.875 144.933594 191.203125 144.140625 C 191.53125 143.347656 191.898438 142.574219 192.304688 141.816406 C 192.710938 141.058594 193.152344 140.320312 193.628906 139.609375 C 194.105469 138.894531 194.617188 138.203125 195.164062 137.539062 C 195.710938 136.875 196.285156 136.242188 196.894531 135.632812 C 197.5 135.027344 198.136719 134.449219 198.800781 133.90625 C 199.464844 133.359375 200.15625 132.847656 200.871094 132.371094 C 201.585938 131.894531 202.320312 131.453125 203.082031 131.050781 C 203.839844 130.644531 204.613281 130.277344 205.410156 129.949219 C 206.203125 129.621094 207.011719 129.332031 207.832031 129.082031 C 208.65625 128.832031 209.488281 128.625 210.332031 128.457031 C 211.175781 128.289062 212.023438 128.164062 212.878906 128.078125 C 213.734375 127.996094 214.59375 127.953125 215.453125 127.953125 C 216.3125 127.953125 217.171875 127.996094 218.027344 128.078125 C 218.882812 128.164062 219.730469 128.289062 220.574219 128.457031 C 221.417969 128.625 222.25 128.832031 223.070312 129.082031 C 223.894531 129.332031 224.703125 129.621094 225.496094 129.949219 C 226.292969 130.277344 227.066406 130.644531 227.824219 131.050781 C 228.582031 131.453125 229.320312 131.894531 230.035156 132.371094 C 230.75 132.847656 231.441406 133.359375 232.105469 133.90625 C 232.769531 134.449219 233.40625 135.027344 234.011719 135.632812 C 234.621094 136.242188 235.195312 136.875 235.742188 137.539062 C 236.289062 138.203125 236.800781 138.894531 237.277344 139.609375 C 237.753906 140.320312 238.195312 141.058594 238.601562 141.816406 C 239.007812 142.574219 239.375 143.347656 239.703125 144.140625 C 240.03125 144.933594 240.320312 145.742188 240.570312 146.566406 C 240.820312 147.386719 241.027344 148.21875 241.195312 149.0625 C 241.363281 149.902344 241.488281 150.753906 241.574219 151.605469 C 241.65625 152.460938 241.699219 153.320312 241.699219 154.179688 Z M 241.699219 154.179688 " fill-opacity="1" fill-rule="nonzero"/><path fill="#a0616a" d="M 195.863281 167.289062 C 195.863281 167.289062 200.808594 204.539062 193.199219 208.71875 C 185.59375 212.898438 238.46875 213.28125 238.46875 213.28125 C 238.46875 213.28125 226.675781 180.972656 232 171.089844 Z M 195.863281 167.289062 " fill-opacity="1" fill-rule="nonzero"/><path fill="#ab3a72" d="M 277.078125 213.46875 L 272.679688 233.476562 L 263.382812 275.804688 L 263.101562 278.121094 L 259.894531 304.957031 L 257.757812 322.785156 L 256.328125 334.761719 C 247.625 339.230469 241.320312 342.316406 241.320312 342.316406 C 241.320312 342.316406 240.777344 339.597656 239.902344 336.121094 C 233.796875 337.949219 222.496094 340.984375 212.917969 341.589844 C 216.40625 345.476562 218.007812 349.125 215.835938 351.816406 C 209.273438 359.933594 182.191406 342.929688 172.71875 336.585938 C 172.496094 338.109375 172.414062 339.636719 172.46875 341.175781 L 165.21875 335.605469 L 165.9375 322.785156 L 167.144531 301.097656 L 168.667969 273.902344 C 168.1875 272.738281 167.785156 271.542969 167.464844 270.324219 C 165.242188 262.4375 162.546875 246.683594 160.480469 233.476562 C 158.820312 222.84375 157.570312 213.859375 157.304688 211.949219 C 157.269531 211.699219 157.25 211.570312 157.25 211.570312 L 197.382812 193.851562 C 200.234375 200.460938 213.550781 202.449219 213.550781 202.449219 C 224.582031 201.6875 233.230469 195.875 233.230469 195.875 Z M 277.078125 213.46875 " fill-opacity="1" fill-rule="nonzero"/><path fill="#a0616a" d="M 244.363281 334.714844 C 244.363281 334.714844 242.664062 335.296875 239.902344 336.121094 C 233.796875 337.949219 222.496094 340.984375 212.917969 341.589844 C 204.671875 342.121094 197.707031 340.851562 196.433594 335.476562 C 195.886719 333.164062 196.660156 331.261719 198.347656 329.703125 C 203.386719 325.03125 216.550781 323.359375 226.992188 322.785156 C 229.941406 322.625 232.667969 322.550781 234.9375 322.523438 C 238.792969 322.472656 241.320312 322.550781 241.320312 322.550781 L 241.378906 322.785156 Z M 244.363281 334.714844 " fill-opacity="1" fill-rule="nonzero"/><path fill="#943232" d="M 193.617188 129.371094 L 188.710938 127.40625 C 188.710938 127.40625 198.972656 116.121094 213.25 117.101562 L 209.234375 112.683594 C 209.234375 112.683594 219.046875 108.757812 227.972656 119.066406 C 232.660156 124.484375 238.089844 130.851562 241.472656 138.023438 L 246.726562 138.023438 L 244.535156 142.851562 L 252.210938 147.675781 L 244.332031 146.808594 C 244.804688 149.46875 244.875 152.136719 244.542969 154.8125 C 244.375 156.144531 243.964844 157.398438 243.304688 158.570312 C 242.648438 159.742188 241.796875 160.75 240.75 161.589844 C 240.75 161.589844 234.664062 149 234.664062 147.039062 L 234.664062 151.945312 C 234.664062 151.945312 229.753906 147.53125 229.753906 144.585938 L 227.078125 148.019531 L 225.738281 142.621094 L 209.234375 148.019531 L 211.910156 143.601562 L 201.648438 145.074219 L 205.664062 139.675781 C 205.664062 139.675781 194.0625 146.058594 193.617188 151.457031 C 193.171875 156.855469 189.777344 161.96875 189.777344 161.96875 C 189.777344 161.96875 180.679688 136.734375 193.617188 129.371094 Z M 193.617188 129.371094 " fill-opacity="1" fill-rule="nonzero"/><path fill="#ab3a72" d="M 305.605469 305.445312 C 302.933594 308.34375 296.308594 312.703125 288.277344 317.425781 C 285.289062 319.179688 282.109375 320.988281 278.863281 322.785156 C 271.121094 327.078125 263.015625 331.328125 256.328125 334.761719 C 247.625 339.230469 241.320312 342.316406 241.320312 342.316406 C 241.320312 342.316406 240.777344 339.597656 239.902344 336.121094 C 238.730469 331.464844 236.96875 325.449219 235.128906 322.785156 C 235.066406 322.695312 235 322.609375 234.9375 322.523438 C 234.402344 321.820312 233.863281 321.410156 233.332031 321.410156 L 259.894531 304.957031 L 271.371094 297.847656 L 263.101562 278.121094 L 252.730469 253.378906 L 258.992188 233.476562 L 265.285156 213.46875 L 277.078125 213.46875 C 277.078125 213.46875 280.980469 221.984375 285.972656 233.859375 C 286.71875 235.636719 287.492188 237.488281 288.277344 239.398438 C 298.550781 264.363281 311.355469 299.222656 305.605469 305.445312 Z M 305.605469 305.445312 " fill-opacity="1" fill-rule="nonzero"/><path fill="#a0616a" d="M 215.835938 351.816406 C 209.273438 359.933594 182.191406 342.929688 172.71875 336.589844 C 170.65625 335.207031 169.425781 334.335938 169.425781 334.335938 L 178.09375 322.785156 L 180.835938 319.128906 C 180.835938 319.128906 183.292969 320.433594 186.921875 322.550781 C 187.054688 322.628906 187.1875 322.707031 187.324219 322.785156 C 190.453125 324.621094 194.382812 327.023438 198.347656 329.703125 C 203.820312 333.398438 209.351562 337.617188 212.917969 341.589844 C 216.40625 345.476562 218.007812 349.125 215.835938 351.816406 Z M 215.835938 351.816406 " fill-opacity="1" fill-rule="nonzero"/><path fill="#ab3a72" d="M 186.921875 322.550781 C 185.953125 322.546875 184.988281 322.625 184.03125 322.785156 C 175.828125 324.195312 173.40625 331.617188 172.71875 336.589844 C 172.496094 338.109375 172.414062 339.636719 172.46875 341.175781 L 165.21875 335.605469 L 162.578125 333.574219 C 156.21875 331.359375 150.554688 327.425781 145.644531 322.785156 C 141.371094 318.679688 137.570312 314.175781 134.242188 309.273438 C 130.929688 304.449219 127.988281 299.410156 125.417969 294.152344 C 124.691406 292.667969 124.316406 291.101562 124.289062 289.453125 C 124.261719 287.804688 124.585938 286.226562 125.265625 284.71875 L 134.242188 264.730469 L 147.363281 235.515625 C 147.457031 234.820312 147.5625 234.140625 147.679688 233.476562 C 150.28125 218.566406 157.25 211.949219 157.25 211.949219 L 162.578125 211.949219 L 166.140625 233.476562 L 170.566406 260.21875 L 167.464844 270.324219 L 160.296875 293.667969 L 167.144531 301.097656 Z M 186.921875 322.550781 " fill-opacity="1" fill-rule="nonzero"/><path fill="#ffab57" d="M 192.949219 260.238281 L 197.503906 265.546875 C 199.195312 265.226562 200.960938 264.847656 202.78125 264.421875 L 201.472656 260.238281 L 204.667969 263.96875 C 223.941406 259.230469 247.832031 250.023438 247.832031 250.023438 C 247.832031 250.023438 222.042969 251.910156 202.785156 247.707031 C 194.265625 245.847656 185.5 250.070312 182 258.050781 C 179.96875 262.691406 180.289062 266.710938 187.496094 266.710938 C 189.933594 266.667969 192.355469 266.441406 194.761719 266.027344 Z M 192.949219 260.238281 " fill-opacity="1" fill-rule="nonzero"/><path fill="#3f3d56" d="M 296.734375 347.464844 L 296.734375 349.628906 C 296.738281 350.230469 296.628906 350.808594 296.410156 351.367188 C 296.316406 351.613281 296.199219 351.851562 296.066406 352.078125 C 295.632812 352.804688 295.046875 353.378906 294.3125 353.792969 C 293.578125 354.210938 292.789062 354.417969 291.941406 354.417969 L 132.554688 354.417969 C 131.710938 354.417969 130.921875 354.210938 130.183594 353.792969 C 129.449219 353.378906 128.867188 352.804688 128.433594 352.078125 C 128.296875 351.851562 128.183594 351.613281 128.085938 351.367188 C 127.871094 350.808594 127.761719 350.230469 127.761719 349.628906 L 127.761719 347.464844 C 127.761719 347.152344 127.792969 346.839844 127.855469 346.53125 C 127.914062 346.222656 128.007812 345.921875 128.128906 345.632812 C 128.246094 345.339844 128.394531 345.066406 128.570312 344.804688 C 128.746094 344.542969 128.945312 344.300781 129.167969 344.078125 C 129.390625 343.855469 129.628906 343.65625 129.890625 343.480469 C 130.15625 343.308594 130.429688 343.160156 130.722656 343.039062 C 131.011719 342.917969 131.3125 342.828125 131.621094 342.765625 C 131.929688 342.707031 132.242188 342.675781 132.554688 342.675781 L 141.742188 342.675781 L 141.742188 341.667969 C 141.742188 341.53125 141.808594 341.464844 141.941406 341.464844 L 146.738281 341.464844 C 146.871094 341.464844 146.9375 341.53125 146.9375 341.667969 L 146.9375 342.675781 L 149.929688 342.675781 L 149.929688 341.667969 C 149.929688 341.53125 149.996094 341.464844 150.132812 341.464844 L 154.925781 341.464844 C 155.058594 341.464844 155.125 341.53125 155.125 341.667969 L 155.125 342.675781 L 158.121094 342.675781 L 158.121094 341.667969 C 158.121094 341.53125 158.1875 341.464844 158.324219 341.464844 L 163.117188 341.464844 C 163.25 341.464844 163.316406 341.53125 163.316406 341.667969 L 163.316406 342.675781 L 166.3125 342.675781 L 166.3125 341.667969 C 166.308594 341.53125 166.378906 341.464844 166.511719 341.464844 L 171.304688 341.464844 C 171.4375 341.464844 171.503906 341.53125 171.503906 341.667969 L 171.503906 342.675781 L 174.5 342.675781 L 174.5 341.667969 C 174.5 341.53125 174.566406 341.464844 174.699219 341.464844 L 179.492188 341.464844 C 179.625 341.464844 179.691406 341.53125 179.691406 341.667969 L 179.691406 342.675781 L 182.691406 342.675781 L 182.691406 341.667969 C 182.691406 341.53125 182.757812 341.464844 182.890625 341.464844 L 187.683594 341.464844 C 187.816406 341.464844 187.882812 341.53125 187.882812 341.667969 L 187.882812 342.675781 L 190.878906 342.675781 L 190.878906 341.667969 C 190.878906 341.53125 190.945312 341.464844 191.078125 341.464844 L 228.625 341.464844 C 228.761719 341.464844 228.828125 341.53125 228.828125 341.667969 L 228.828125 342.675781 L 231.824219 342.675781 L 231.824219 341.667969 C 231.824219 341.53125 231.890625 341.464844 232.023438 341.464844 L 236.816406 341.464844 C 236.949219 341.46875 237.015625 341.535156 237.019531 341.667969 L 237.019531 342.675781 L 240.011719 342.675781 L 240.011719 341.667969 C 240.011719 341.53125 240.078125 341.464844 240.210938 341.464844 L 245.007812 341.464844 C 245.140625 341.464844 245.207031 341.53125 245.207031 341.667969 L 245.207031 342.675781 L 248.199219 342.675781 L 248.199219 341.667969 C 248.199219 341.53125 248.265625 341.464844 248.402344 341.464844 L 253.195312 341.464844 C 253.328125 341.464844 253.394531 341.53125 253.394531 341.667969 L 253.394531 342.675781 L 256.390625 342.675781 L 256.390625 341.667969 C 256.390625 341.53125 256.457031 341.464844 256.59375 341.464844 L 261.386719 341.464844 C 261.515625 341.46875 261.582031 341.535156 261.582031 341.667969 L 261.582031 342.675781 L 264.582031 342.675781 L 264.582031 341.667969 C 264.578125 341.53125 264.648438 341.464844 264.78125 341.464844 L 269.574219 341.464844 C 269.707031 341.464844 269.773438 341.53125 269.773438 341.667969 L 269.773438 342.675781 L 272.769531 342.675781 L 272.769531 341.667969 C 272.769531 341.53125 272.835938 341.464844 272.96875 341.464844 L 277.761719 341.464844 C 277.894531 341.464844 277.960938 341.53125 277.960938 341.667969 L 277.960938 342.675781 L 291.941406 342.675781 C 292.257812 342.675781 292.570312 342.707031 292.878906 342.765625 C 293.1875 342.828125 293.484375 342.917969 293.777344 343.039062 C 294.066406 343.160156 294.34375 343.308594 294.605469 343.480469 C 294.867188 343.65625 295.109375 343.855469 295.332031 344.078125 C 295.554688 344.300781 295.753906 344.542969 295.929688 344.804688 C 296.101562 345.066406 296.25 345.339844 296.371094 345.632812 C 296.492188 345.921875 296.582031 346.222656 296.644531 346.53125 C 296.707031 346.839844 296.734375 347.152344 296.734375 347.464844 Z M 296.734375 347.464844 " fill-opacity="1" fill-rule="nonzero"/><path fill="#3f3d56" d="M 81.453125 351.367188 L 343.082031 351.367188 L 343.082031 352.078125 L 81.453125 352.078125 Z M 81.453125 351.367188 " fill-opacity="1" fill-rule="nonzero"/><path fill="#3f3d56" d="M 283.902344 256.300781 L 224.492188 256.300781 L 224.492188 255.078125 L 197.554688 255.078125 L 197.554688 256.300781 L 137.902344 256.300781 C 137.640625 256.300781 137.378906 256.324219 137.117188 256.375 C 136.859375 256.429688 136.609375 256.503906 136.363281 256.605469 C 136.121094 256.707031 135.890625 256.828125 135.671875 256.976562 C 135.449219 257.121094 135.25 257.289062 135.0625 257.476562 C 134.875 257.660156 134.707031 257.863281 134.5625 258.085938 C 134.414062 258.304688 134.292969 258.535156 134.191406 258.777344 C 134.089844 259.023438 134.011719 259.273438 133.960938 259.53125 C 133.910156 259.789062 133.882812 260.050781 133.882812 260.316406 L 133.882812 341.59375 C 133.882812 341.859375 133.910156 342.121094 133.960938 342.378906 C 134.011719 342.636719 134.089844 342.886719 134.191406 343.132812 C 134.292969 343.375 134.414062 343.605469 134.5625 343.824219 C 134.707031 344.046875 134.875 344.246094 135.0625 344.433594 C 135.25 344.621094 135.449219 344.789062 135.671875 344.933594 C 135.890625 345.082031 136.121094 345.203125 136.363281 345.304688 C 136.609375 345.40625 136.859375 345.480469 137.117188 345.535156 C 137.378906 345.585938 137.640625 345.609375 137.902344 345.609375 L 283.902344 345.609375 C 284.167969 345.609375 284.425781 345.585938 284.6875 345.535156 C 284.945312 345.480469 285.195312 345.40625 285.441406 345.304688 C 285.683594 345.203125 285.914062 345.082031 286.136719 344.933594 C 286.355469 344.789062 286.558594 344.621094 286.742188 344.433594 C 286.929688 344.246094 287.097656 344.046875 287.242188 343.824219 C 287.390625 343.605469 287.515625 343.375 287.613281 343.132812 C 287.714844 342.886719 287.792969 342.636719 287.84375 342.378906 C 287.894531 342.121094 287.921875 341.859375 287.921875 341.59375 L 287.921875 260.316406 C 287.921875 260.050781 287.894531 259.789062 287.84375 259.53125 C 287.792969 259.273438 287.714844 259.023438 287.613281 258.777344 C 287.515625 258.535156 287.390625 258.304688 287.242188 258.085938 C 287.097656 257.863281 286.929688 257.660156 286.742188 257.476562 C 286.558594 257.289062 286.355469 257.121094 286.132812 256.976562 C 285.914062 256.828125 285.683594 256.707031 285.441406 256.605469 C 285.195312 256.503906 284.945312 256.429688 284.6875 256.375 C 284.425781 256.324219 284.167969 256.300781 283.902344 256.300781 Z M 283.902344 256.300781 " fill-opacity="1" fill-rule="nonzero"/><path stroke-linecap="butt" transform="matrix(0.356928, 0, 0, 0.356631, 59.860175, 111.950803)" fill="none" stroke-linejoin="miter" d="M 448.496972 484.32341 C 448.496972 485.966388 448.343755 487.598412 448.015433 489.20853 C 447.698054 490.807695 447.227459 492.374 446.592703 493.896492 C 445.96889 495.408032 445.202805 496.853852 444.283502 498.212047 C 443.375144 499.581194 442.335457 500.840811 441.175385 502.001848 C 440.015313 503.162885 438.756744 504.203438 437.388734 505.112552 C 436.020724 506.021666 434.58705 506.799342 433.065824 507.423674 C 431.555541 508.048005 429.990538 508.529945 428.381759 508.847587 C 426.762035 509.16523 425.142312 509.329527 423.500701 509.329527 C 421.859089 509.329527 420.228422 509.16523 418.619642 508.847587 C 417.010863 508.529945 415.44586 508.048005 413.935577 507.423674 C 412.414351 506.799342 410.980677 506.021666 409.612667 505.112552 C 408.244657 504.203438 406.986089 503.162885 405.826016 502.001848 C 404.665944 500.840811 403.626257 499.581194 402.717899 498.212047 C 401.798596 496.853852 401.032511 495.408032 400.397754 493.896492 C 399.773942 492.374 399.303347 490.807695 398.975024 489.20853 C 398.657646 487.598412 398.504429 485.966388 398.504429 484.32341 C 398.504429 482.680433 398.657646 481.059362 398.975024 479.449244 C 399.303347 477.839126 399.773942 476.272821 400.397754 474.761281 C 401.032511 473.238789 401.798596 471.803922 402.717899 470.434774 C 403.626257 469.076579 404.665944 467.80601 405.826016 466.644973 C 406.986089 465.483935 408.244657 464.454336 409.612667 463.534269 C 410.980677 462.625155 412.414351 461.858432 413.935577 461.2341 C 415.44586 460.598816 417.010863 460.127829 418.619642 459.810186 C 420.228422 459.481591 421.859089 459.328246 423.500701 459.328246 C 425.142312 459.328246 426.762035 459.481591 428.381759 459.810186 C 429.990538 460.127829 431.555541 460.598816 433.065824 461.2341 C 434.58705 461.858432 436.020724 462.625155 437.388734 463.534269 C 438.756744 464.454336 440.015313 465.483935 441.175385 466.644973 C 442.335457 467.80601 443.375144 469.076579 444.283502 470.434774 C 445.202805 471.803922 445.96889 473.238789 446.592703 474.761281 C 447.227459 476.272821 447.698054 477.839126 448.015433 479.449244 C 448.343755 481.059362 448.496972 482.680433 448.496972 484.32341 Z M 448.496972 484.32341 " stroke="#d0cde1" stroke-width="2" stroke-opacity="1" stroke-miterlimit="10"/><path fill="#ab3a72" d="M 217.085938 287.886719 C 217.085938 288.472656 217.03125 289.050781 216.914062 289.625 C 216.800781 290.199219 216.632812 290.757812 216.40625 291.296875 C 216.183594 291.839844 215.910156 292.351562 215.582031 292.839844 C 215.257812 293.328125 214.886719 293.777344 214.472656 294.191406 C 214.058594 294.605469 213.609375 294.972656 213.121094 295.300781 C 212.632812 295.625 212.121094 295.898438 211.578125 296.125 C 211.039062 296.347656 210.480469 296.515625 209.90625 296.628906 C 209.328125 296.746094 208.75 296.800781 208.164062 296.800781 C 207.578125 296.800781 206.996094 296.746094 206.421875 296.628906 C 205.847656 296.515625 205.289062 296.347656 204.75 296.125 C 204.207031 295.898438 203.695312 295.625 203.207031 295.300781 C 202.71875 294.972656 202.269531 294.605469 201.855469 294.191406 C 201.441406 293.777344 201.070312 293.328125 200.746094 292.839844 C 200.417969 292.351562 200.144531 291.839844 199.917969 291.296875 C 199.695312 290.757812 199.527344 290.199219 199.410156 289.625 C 199.296875 289.050781 199.242188 288.472656 199.242188 287.886719 C 199.242188 287.300781 199.296875 286.722656 199.410156 286.148438 C 199.527344 285.574219 199.695312 285.015625 199.917969 284.472656 C 200.144531 283.933594 200.417969 283.417969 200.746094 282.933594 C 201.070312 282.445312 201.441406 281.996094 201.855469 281.582031 C 202.269531 281.167969 202.71875 280.796875 203.207031 280.472656 C 203.695312 280.148438 204.207031 279.875 204.75 279.648438 C 205.289062 279.425781 205.847656 279.257812 206.421875 279.140625 C 206.996094 279.027344 207.578125 278.96875 208.164062 278.96875 C 208.75 278.96875 209.328125 279.027344 209.90625 279.140625 C 210.480469 279.257812 211.039062 279.425781 211.578125 279.648438 C 212.121094 279.875 212.632812 280.148438 213.121094 280.472656 C 213.609375 280.796875 214.058594 281.167969 214.472656 281.582031 C 214.886719 281.996094 215.257812 282.445312 215.582031 282.933594 C 215.910156 283.417969 216.183594 283.933594 216.40625 284.472656 C 216.632812 285.015625 216.800781 285.574219 216.914062 286.148438 C 217.03125 286.722656 217.085938 287.300781 217.085938 287.886719 Z M 217.085938 287.886719 " fill-opacity="1" fill-rule="nonzero"/><path fill="#ab3a72" d="M 88.574219 347.765625 L 98.566406 347.765625 L 98.566406 357.75 L 88.574219 357.75 Z M 88.574219 347.765625 " fill-opacity="1" fill-rule="nonzero"/><path fill="#3f3d56" d="M 92.5 339.917969 L 92.5 352.042969 L 104.636719 352.042969 L 104.636719 339.917969 Z M 104.109375 351.515625 L 93.027344 351.515625 L 93.027344 340.445312 L 104.109375 340.445312 Z M 104.109375 351.515625 " fill-opacity="1" fill-rule="nonzero"/><path fill="#ab3a72" d="M 319.863281 347.765625 L 329.855469 347.765625 L 329.855469 357.75 L 319.863281 357.75 Z M 319.863281 347.765625 " fill-opacity="1" fill-rule="nonzero"/><path fill="#3f3d56" d="M 323.789062 339.917969 L 323.789062 352.042969 L 335.925781 352.042969 L 335.925781 339.917969 Z M 335.398438 351.515625 L 324.316406 351.515625 L 324.316406 340.445312 L 335.398438 340.445312 Z M 335.398438 351.515625 " fill-opacity="1" fill-rule="nonzero"/><path fill="#ffab57" d="M 121.9375 165.722656 C 121.9375 166.648438 121.890625 167.574219 121.800781 168.496094 C 121.710938 169.417969 121.574219 170.332031 121.394531 171.242188 C 121.210938 172.148438 120.988281 173.046875 120.71875 173.933594 C 120.449219 174.820312 120.136719 175.691406 119.78125 176.550781 C 119.425781 177.40625 119.03125 178.242188 118.59375 179.058594 C 118.15625 179.875 117.679688 180.671875 117.164062 181.441406 C 116.648438 182.210938 116.097656 182.957031 115.507812 183.671875 C 114.921875 184.386719 114.296875 185.074219 113.644531 185.730469 C 112.988281 186.382812 112.300781 187.003906 111.582031 187.59375 C 110.867188 188.179688 110.121094 188.734375 109.351562 189.246094 C 108.582031 189.761719 107.785156 190.238281 106.96875 190.675781 C 106.148438 191.113281 105.3125 191.507812 104.457031 191.863281 C 103.597656 192.21875 102.726562 192.527344 101.839844 192.796875 C 100.953125 193.066406 100.054688 193.292969 99.144531 193.472656 C 98.234375 193.652344 97.316406 193.789062 96.394531 193.878906 C 95.472656 193.972656 94.546875 194.015625 93.617188 194.015625 C 92.691406 194.015625 91.765625 193.972656 90.84375 193.878906 C 89.917969 193.789062 89.003906 193.652344 88.09375 193.472656 C 87.183594 193.292969 86.285156 193.066406 85.398438 192.796875 C 84.511719 192.527344 83.636719 192.21875 82.78125 191.863281 C 81.925781 191.507812 81.085938 191.113281 80.269531 190.675781 C 79.449219 190.238281 78.65625 189.761719 77.886719 189.246094 C 77.113281 188.734375 76.371094 188.179688 75.652344 187.59375 C 74.9375 187.003906 74.25 186.382812 73.59375 185.730469 C 72.9375 185.074219 72.316406 184.386719 71.726562 183.671875 C 71.140625 182.957031 70.585938 182.210938 70.074219 181.441406 C 69.558594 180.671875 69.082031 179.875 68.644531 179.058594 C 68.207031 178.242188 67.808594 177.40625 67.457031 176.550781 C 67.101562 175.691406 66.789062 174.820312 66.519531 173.933594 C 66.25 173.046875 66.023438 172.148438 65.84375 171.242188 C 65.664062 170.332031 65.527344 169.417969 65.4375 168.496094 C 65.34375 167.574219 65.300781 166.648438 65.300781 165.722656 C 65.300781 164.792969 65.34375 163.871094 65.4375 162.949219 C 65.527344 162.027344 65.664062 161.109375 65.84375 160.199219 C 66.023438 159.292969 66.25 158.394531 66.519531 157.507812 C 66.789062 156.621094 67.101562 155.75 67.457031 154.894531 C 67.808594 154.035156 68.207031 153.199219 68.644531 152.382812 C 69.082031 151.566406 69.558594 150.773438 70.074219 150 C 70.585938 149.230469 71.140625 148.488281 71.726562 147.769531 C 72.316406 147.054688 72.9375 146.367188 73.59375 145.714844 C 74.25 145.058594 74.9375 144.4375 75.652344 143.847656 C 76.371094 143.261719 77.113281 142.710938 77.886719 142.195312 C 78.65625 141.679688 79.449219 141.203125 80.269531 140.765625 C 81.085938 140.332031 81.925781 139.933594 82.78125 139.578125 C 83.636719 139.226562 84.511719 138.914062 85.398438 138.644531 C 86.285156 138.375 87.183594 138.152344 88.09375 137.96875 C 89.003906 137.789062 89.917969 137.652344 90.84375 137.5625 C 91.765625 137.472656 92.691406 137.425781 93.617188 137.425781 C 94.546875 137.425781 95.472656 137.472656 96.394531 137.5625 C 97.316406 137.652344 98.234375 137.789062 99.144531 137.96875 C 100.054688 138.152344 100.953125 138.375 101.839844 138.644531 C 102.726562 138.914062 103.597656 139.226562 104.457031 139.578125 C 105.3125 139.933594 106.148438 140.332031 106.96875 140.765625 C 107.785156 141.203125 108.582031 141.679688 109.351562 142.195312 C 110.121094 142.710938 110.867188 143.261719 111.582031 143.847656 C 112.300781 144.4375 112.988281 145.058594 113.644531 145.714844 C 114.296875 146.367188 114.921875 147.054688 115.507812 147.769531 C 116.097656 148.488281 116.648438 149.230469 117.164062 150 C 117.679688 150.773438 118.15625 151.566406 118.59375 152.382812 C 119.03125 153.199219 119.425781 154.035156 119.78125 154.894531 C 120.136719 155.75 120.449219 156.621094 120.71875 157.507812 C 120.988281 158.394531 121.210938 159.292969 121.394531 160.199219 C 121.574219 161.109375 121.710938 162.027344 121.800781 162.949219 C 121.890625 163.871094 121.9375 164.792969 121.9375 165.722656 Z M 121.9375 165.722656 " fill-opacity="1" fill-rule="nonzero"/><path fill="#3f3d56" d="M 103.488281 132.097656 C 100.914062 131.769531 98.339844 131.769531 95.765625 132.097656 C 94.34375 132.285156 92.941406 132.570312 91.5625 132.957031 C 90.183594 133.339844 88.835938 133.824219 87.527344 134.402344 C 86.214844 134.980469 84.953125 135.648438 83.738281 136.40625 C 82.519531 137.164062 81.367188 138.003906 80.269531 138.929688 C 79.175781 139.851562 78.148438 140.847656 77.195312 141.917969 C 76.242188 142.988281 75.371094 144.117188 74.582031 145.3125 C 73.789062 146.503906 73.085938 147.75 72.472656 149.042969 C 71.859375 150.335938 71.339844 151.667969 70.917969 153.035156 C 70.136719 155.550781 69.703125 158.128906 69.613281 160.761719 C 69.597656 161.125 69.589844 161.492188 69.589844 161.863281 C 69.589844 162.84375 69.640625 163.824219 69.738281 164.804688 C 69.835938 165.78125 69.980469 166.75 70.171875 167.714844 C 70.363281 168.679688 70.605469 169.628906 70.890625 170.570312 C 71.175781 171.511719 71.507812 172.433594 71.886719 173.34375 C 72.261719 174.25 72.683594 175.136719 73.144531 176.003906 C 73.609375 176.871094 74.113281 177.710938 74.660156 178.527344 C 75.207031 179.34375 75.792969 180.132812 76.417969 180.894531 C 77.042969 181.652344 77.699219 182.378906 78.394531 183.074219 C 79.089844 183.769531 79.820312 184.429688 80.578125 185.050781 C 81.339844 185.675781 82.128906 186.261719 82.945312 186.804688 C 83.765625 187.351562 84.605469 187.855469 85.472656 188.320312 C 86.339844 188.785156 87.226562 189.203125 88.136719 189.582031 C 89.042969 189.957031 89.96875 190.289062 90.910156 190.574219 C 91.851562 190.859375 92.804688 191.097656 93.769531 191.292969 C 94.734375 191.484375 95.703125 191.628906 96.683594 191.726562 C 97.660156 191.824219 98.640625 191.871094 99.625 191.871094 C 100.265625 191.871094 100.902344 191.851562 101.535156 191.8125 C 103.019531 191.71875 104.484375 191.515625 105.9375 191.203125 C 106.792969 191.019531 107.640625 190.796875 108.480469 190.539062 C 109.316406 190.28125 110.144531 189.988281 110.957031 189.65625 C 111.765625 189.324219 112.5625 188.960938 113.34375 188.558594 C 114.125 188.160156 114.882812 187.726562 115.625 187.261719 C 116.367188 186.792969 117.089844 186.292969 117.789062 185.765625 C 118.484375 185.234375 119.160156 184.675781 119.808594 184.085938 C 120.457031 183.496094 121.082031 182.882812 121.675781 182.238281 C 122.273438 181.59375 122.835938 180.925781 123.375 180.234375 C 123.910156 179.542969 124.417969 178.828125 124.890625 178.089844 C 125.363281 177.351562 125.804688 176.597656 126.214844 175.820312 C 126.621094 175.042969 126.996094 174.253906 127.332031 173.445312 C 127.671875 172.636719 127.972656 171.816406 128.242188 170.980469 C 128.507812 170.144531 128.738281 169.300781 128.929688 168.445312 C 129.121094 167.589844 129.277344 166.730469 129.394531 165.859375 C 129.507812 164.992188 129.589844 164.121094 129.628906 163.246094 C 129.667969 162.371094 129.671875 161.496094 129.636719 160.617188 C 129.597656 159.742188 129.523438 158.871094 129.410156 158.003906 C 129.296875 157.132812 129.148438 156.269531 128.960938 155.414062 C 128.773438 154.558594 128.546875 153.714844 128.285156 152.878906 C 128.019531 152.042969 127.722656 151.21875 127.386719 150.410156 C 127.054688 149.597656 126.683594 148.804688 126.28125 148.027344 C 125.875 147.25 125.4375 146.492188 124.96875 145.753906 C 124.496094 145.011719 123.996094 144.296875 123.460938 143.601562 C 122.929688 142.90625 122.363281 142.234375 121.773438 141.589844 C 121.179688 140.941406 120.5625 140.324219 119.914062 139.730469 C 119.269531 139.140625 118.597656 138.578125 117.902344 138.042969 C 117.203125 137.511719 116.488281 137.007812 115.746094 136.539062 C 115.007812 136.066406 114.25 135.628906 113.46875 135.226562 C 112.691406 134.824219 111.898438 134.453125 111.085938 134.121094 C 110.277344 133.785156 109.453125 133.488281 108.617188 133.222656 C 107.78125 132.960938 106.933594 132.738281 106.078125 132.546875 C 105.21875 132.359375 104.355469 132.210938 103.488281 132.097656 Z M 109.027344 189.464844 L 109.023438 189.464844 C 106.59375 190.292969 104.097656 190.789062 101.535156 190.949219 C 100.902344 190.992188 100.265625 191.015625 99.625 191.015625 C 98.671875 191.015625 97.71875 190.964844 96.765625 190.871094 C 95.816406 190.777344 94.871094 190.636719 93.9375 190.449219 C 93 190.261719 92.074219 190.03125 91.160156 189.753906 C 90.246094 189.472656 89.347656 189.152344 88.464844 188.785156 C 87.582031 188.421875 86.722656 188.011719 85.878906 187.5625 C 85.035156 187.113281 84.21875 186.621094 83.425781 186.089844 C 82.628906 185.5625 81.863281 184.992188 81.125 184.386719 C 80.386719 183.78125 79.679688 183.140625 79.003906 182.464844 C 78.328125 181.792969 77.6875 181.085938 77.082031 180.347656 C 76.476562 179.609375 75.90625 178.84375 75.375 178.050781 C 74.847656 177.257812 74.355469 176.441406 73.90625 175.597656 C 73.453125 174.757812 73.046875 173.894531 72.679688 173.011719 C 72.3125 172.132812 71.992188 171.234375 71.714844 170.320312 C 71.433594 169.40625 71.203125 168.484375 71.015625 167.546875 C 70.828125 166.613281 70.6875 165.667969 70.59375 164.71875 C 70.496094 163.769531 70.449219 162.816406 70.449219 161.863281 C 70.449219 161.492188 70.457031 161.125 70.46875 160.761719 C 70.507812 159.828125 70.585938 158.902344 70.710938 157.980469 C 70.835938 157.058594 71.007812 156.140625 71.21875 155.234375 C 71.433594 154.328125 71.6875 153.433594 71.988281 152.550781 C 72.285156 151.667969 72.625 150.804688 73.007812 149.953125 C 73.390625 149.105469 73.808594 148.273438 74.269531 147.464844 C 74.730469 146.65625 75.230469 145.867188 75.765625 145.105469 C 76.304688 144.34375 76.875 143.609375 77.480469 142.902344 C 78.089844 142.195312 78.726562 141.519531 79.398438 140.875 C 80.070312 140.226562 80.769531 139.613281 81.5 139.035156 C 82.230469 138.457031 82.988281 137.914062 83.769531 137.40625 C 84.550781 136.902344 85.355469 136.433594 86.183594 136.003906 C 87.011719 135.574219 87.855469 135.183594 88.722656 134.835938 C 89.585938 134.484375 90.464844 134.179688 91.359375 133.914062 C 92.253906 133.648438 93.15625 133.429688 94.070312 133.25 C 94.988281 133.070312 95.90625 132.9375 96.835938 132.847656 C 97.761719 132.757812 98.695312 132.710938 99.625 132.710938 C 100.480469 132.710938 101.335938 132.746094 102.1875 132.824219 C 103.039062 132.898438 103.886719 133.011719 104.730469 133.160156 C 105.574219 133.308594 106.40625 133.496094 107.234375 133.71875 C 108.058594 133.941406 108.875 134.199219 109.675781 134.496094 C 110.480469 134.789062 111.269531 135.117188 112.042969 135.484375 C 112.816406 135.847656 113.574219 136.242188 114.3125 136.675781 C 115.054688 137.105469 115.773438 137.566406 116.46875 138.058594 C 117.167969 138.554688 117.84375 139.078125 118.496094 139.628906 C 119.148438 140.183594 119.777344 140.761719 120.378906 141.371094 C 120.980469 141.980469 121.554688 142.613281 122.097656 143.273438 C 122.644531 143.929688 123.160156 144.613281 123.644531 145.316406 C 124.132812 146.019531 124.585938 146.742188 125.007812 147.488281 C 125.429688 148.230469 125.816406 148.992188 126.171875 149.769531 C 126.527344 150.546875 126.847656 151.339844 127.132812 152.144531 C 127.417969 152.953125 127.667969 153.769531 127.882812 154.597656 C 128.09375 155.425781 128.269531 156.261719 128.410156 157.105469 C 128.550781 157.945312 128.652344 158.796875 128.71875 159.648438 C 128.785156 160.5 128.8125 161.355469 128.800781 162.207031 C 128.789062 163.0625 128.742188 163.917969 128.65625 164.765625 C 128.574219 165.617188 128.449219 166.464844 128.289062 167.304688 C 128.128906 168.144531 127.933594 168.972656 127.703125 169.796875 C 127.46875 170.621094 127.199219 171.429688 126.894531 172.230469 C 126.59375 173.027344 126.253906 173.8125 125.878906 174.582031 C 125.507812 175.351562 125.101562 176.101562 124.660156 176.835938 C 124.222656 177.570312 123.75 178.285156 123.25 178.976562 C 122.746094 179.667969 122.214844 180.335938 121.652344 180.980469 C 121.09375 181.628906 120.503906 182.246094 119.886719 182.839844 C 119.273438 183.433594 118.632812 184 117.964844 184.539062 C 117.300781 185.074219 116.613281 185.582031 115.902344 186.058594 C 115.191406 186.535156 114.464844 186.980469 113.714844 187.394531 C 112.964844 187.808594 112.199219 188.1875 111.414062 188.53125 C 110.632812 188.878906 109.835938 189.1875 109.027344 189.464844 Z M 109.027344 189.464844 " fill-opacity="1" fill-rule="nonzero"/><path fill="#3f3d56" d="M 99.195312 134.425781 L 100.054688 134.425781 L 100.054688 140.425781 L 99.195312 140.425781 Z M 99.195312 134.425781 " fill-opacity="1" fill-rule="nonzero"/><path fill="#3f3d56" d="M 79.90625 142.765625 L 80.511719 142.160156 L 84.757812 146.402344 L 84.152344 147.007812 Z M 79.90625 142.765625 " fill-opacity="1" fill-rule="nonzero"/><path fill="#3f3d56" d="M 72.164062 162.292969 L 72.164062 161.433594 L 78.171875 161.433594 L 78.171875 162.292969 Z M 72.164062 162.292969 " fill-opacity="1" fill-rule="nonzero"/><path fill="#3f3d56" d="M 80.511719 181.566406 L 79.90625 180.960938 L 84.152344 176.714844 L 84.757812 177.324219 Z M 80.511719 181.566406 " fill-opacity="1" fill-rule="nonzero"/><path fill="#3f3d56" d="M 115.097656 147.007812 L 114.492188 146.402344 L 118.738281 142.15625 L 119.347656 142.765625 Z M 115.097656 147.007812 " fill-opacity="1" fill-rule="nonzero"/><path fill="#3f3d56" d="M 121.078125 162.292969 L 121.078125 161.433594 L 127.085938 161.433594 L 127.085938 162.292969 Z M 121.078125 162.292969 " fill-opacity="1" fill-rule="nonzero"/><path fill="#3f3d56" d="M 114.492188 177.324219 L 115.097656 176.71875 L 119.347656 180.960938 L 118.738281 181.566406 Z M 114.492188 177.324219 " fill-opacity="1" fill-rule="nonzero"/><path fill="#3f3d56" d="M 99.195312 183.296875 L 100.054688 183.296875 L 100.054688 189.300781 L 99.195312 189.300781 Z M 99.195312 183.296875 " fill-opacity="1" fill-rule="nonzero"/><path fill="#3f3d56" d="M 100.914062 160.148438 C 100.53125 159.863281 100.101562 159.71875 99.625 159.71875 C 99.148438 159.71875 98.71875 159.863281 98.339844 160.148438 C 98.082031 160.34375 97.875 160.582031 97.726562 160.867188 C 97.597656 161.109375 97.519531 161.367188 97.492188 161.640625 C 97.464844 161.914062 97.484375 162.183594 97.5625 162.445312 C 97.636719 162.710938 97.757812 162.953125 97.925781 163.167969 C 98.089844 163.386719 98.292969 163.566406 98.53125 163.707031 C 98.765625 163.847656 99.019531 163.9375 99.289062 163.980469 C 99.5625 164.023438 99.832031 164.015625 100.097656 163.953125 C 100.367188 163.894531 100.613281 163.785156 100.839844 163.628906 C 101.066406 163.476562 101.253906 163.28125 101.410156 163.054688 C 101.5625 162.828125 101.667969 162.578125 101.722656 162.3125 C 101.78125 162.042969 101.785156 161.773438 101.742188 161.503906 C 101.695312 161.230469 101.601562 160.980469 101.457031 160.746094 C 101.3125 160.511719 101.132812 160.3125 100.914062 160.148438 Z M 99.625 163.148438 C 99.457031 163.148438 99.292969 163.117188 99.132812 163.050781 C 98.976562 162.984375 98.835938 162.890625 98.714844 162.769531 C 98.597656 162.652344 98.503906 162.511719 98.4375 162.355469 C 98.371094 162.195312 98.339844 162.03125 98.339844 161.863281 C 98.339844 161.597656 98.414062 161.355469 98.566406 161.132812 C 98.628906 161.042969 98.703125 160.960938 98.785156 160.890625 C 98.871094 160.816406 98.960938 160.757812 99.0625 160.707031 C 99.160156 160.660156 99.265625 160.625 99.375 160.605469 C 99.480469 160.582031 99.589844 160.574219 99.703125 160.582031 C 99.8125 160.589844 99.917969 160.609375 100.023438 160.644531 C 100.128906 160.675781 100.230469 160.722656 100.320312 160.785156 C 100.414062 160.84375 100.5 160.914062 100.574219 160.996094 C 100.648438 161.078125 100.710938 161.167969 100.761719 161.265625 C 100.8125 161.363281 100.851562 161.464844 100.878906 161.574219 C 100.902344 161.683594 100.914062 161.792969 100.910156 161.902344 C 100.90625 162.011719 100.890625 162.121094 100.859375 162.226562 C 100.828125 162.332031 100.78125 162.433594 100.726562 162.527344 C 100.667969 162.621094 100.601562 162.707031 100.519531 162.785156 C 100.441406 162.863281 100.351562 162.929688 100.257812 162.980469 C 100.160156 163.035156 100.058594 163.078125 99.953125 163.105469 C 99.84375 163.132812 99.734375 163.148438 99.625 163.148438 Z M 99.625 163.148438 " fill-opacity="1" fill-rule="nonzero"/><path fill="#3f3d56" d="M 95.765625 124.566406 L 103.488281 124.566406 L 103.488281 132.28125 L 95.765625 132.28125 Z M 95.765625 124.566406 " fill-opacity="1" fill-rule="nonzero"/><path fill="#3f3d56" d="M 109.921875 122.207031 C 109.921875 122.445312 109.855469 122.683594 109.726562 122.917969 C 109.59375 123.152344 109.398438 123.378906 109.140625 123.601562 C 108.878906 123.820312 108.5625 124.03125 108.1875 124.230469 C 107.8125 124.429688 107.386719 124.613281 106.90625 124.78125 C 106.429688 124.953125 105.910156 125.101562 105.347656 125.238281 C 104.785156 125.371094 104.191406 125.480469 103.566406 125.574219 C 102.941406 125.664062 102.296875 125.734375 101.632812 125.78125 C 100.972656 125.828125 100.300781 125.851562 99.625 125.851562 C 98.949219 125.851562 98.28125 125.828125 97.617188 125.78125 C 96.953125 125.734375 96.308594 125.664062 95.683594 125.574219 C 95.058594 125.480469 94.464844 125.371094 93.90625 125.238281 C 93.34375 125.101562 92.820312 124.953125 92.34375 124.78125 C 91.867188 124.613281 91.4375 124.429688 91.0625 124.230469 C 90.6875 124.03125 90.371094 123.820312 90.113281 123.601562 C 89.851562 123.378906 89.65625 123.152344 89.527344 122.917969 C 89.394531 122.683594 89.328125 122.445312 89.328125 122.207031 C 89.328125 121.96875 89.394531 121.730469 89.527344 121.496094 C 89.65625 121.261719 89.851562 121.03125 90.113281 120.8125 C 90.371094 120.589844 90.6875 120.382812 91.0625 120.183594 C 91.4375 119.984375 91.867188 119.800781 92.34375 119.628906 C 92.820312 119.460938 93.34375 119.308594 93.90625 119.175781 C 94.464844 119.042969 95.058594 118.929688 95.683594 118.839844 C 96.308594 118.75 96.953125 118.679688 97.617188 118.632812 C 98.28125 118.585938 98.949219 118.5625 99.625 118.5625 C 100.300781 118.5625 100.972656 118.585938 101.632812 118.632812 C 102.296875 118.679688 102.941406 118.75 103.566406 118.839844 C 104.191406 118.929688 104.785156 119.042969 105.347656 119.175781 C 105.910156 119.308594 106.429688 119.460938 106.90625 119.628906 C 107.386719 119.800781 107.8125 119.984375 108.1875 120.183594 C 108.5625 120.382812 108.878906 120.589844 109.140625 120.8125 C 109.398438 121.03125 109.59375 121.261719 109.726562 121.496094 C 109.855469 121.730469 109.921875 121.96875 109.921875 122.207031 Z M 109.921875 122.207031 " fill-opacity="1" fill-rule="nonzero"/><path fill="#3f3d56" d="M 98.339844 145.570312 L 100.914062 145.570312 L 100.914062 160.148438 L 98.339844 160.148438 Z M 98.339844 145.570312 " fill-opacity="1" fill-rule="nonzero"/><g clip-path="url(#8d02a5df33)"><path fill="#3f3d56" d="M 59.859375 190.566406 L 140.527344 190.566406 L 140.527344 191.425781 L 59.859375 191.425781 Z M 59.859375 190.566406 " fill-opacity="1" fill-rule="nonzero"/></g><path fill="#ab3a72" d="M 113.613281 325.84375 C 113.945312 337.234375 107.28125 341.410156 98.917969 341.65625 C 98.726562 341.660156 98.53125 341.664062 98.339844 341.667969 C 97.953125 341.667969 97.566406 341.664062 97.1875 341.648438 C 89.625 341.332031 83.636719 337.324219 83.328125 326.726562 C 83.007812 315.757812 96.628906 301.511719 97.652344 300.457031 L 97.65625 300.457031 C 97.691406 300.414062 97.714844 300.394531 97.714844 300.394531 C 97.714844 300.394531 113.277344 314.449219 113.613281 325.84375 Z M 113.613281 325.84375 " fill-opacity="1" fill-rule="nonzero"/><path fill="#3f3d56" d="M 98.316406 339.929688 L 103.628906 332.035156 L 98.328125 340.777344 L 98.339844 341.667969 C 97.953125 341.667969 97.566406 341.664062 97.1875 341.648438 L 97.449219 330.230469 L 97.441406 330.140625 L 97.453125 330.125 L 97.476562 329.046875 L 91.660156 320.609375 L 97.472656 328.238281 L 97.492188 328.46875 L 97.691406 319.84375 L 92.667969 311.09375 L 97.707031 318.328125 L 97.652344 300.457031 L 97.652344 300.398438 L 97.65625 300.457031 L 97.988281 314.539062 L 102.566406 308.820312 L 98.003906 315.753906 L 98.101562 323.46875 L 102.316406 315.9375 L 98.117188 324.601562 L 98.175781 328.894531 L 104.300781 318.402344 L 98.191406 330.390625 Z M 98.316406 339.929688 " fill-opacity="1" fill-rule="nonzero"/><path fill="#ab3a72" d="M 344.902344 325.84375 C 345.234375 337.234375 338.570312 341.410156 330.207031 341.65625 C 330.015625 341.660156 329.820312 341.664062 329.628906 341.667969 C 329.242188 341.667969 328.855469 341.664062 328.476562 341.648438 C 320.914062 341.332031 314.925781 337.324219 314.617188 326.726562 C 314.296875 315.757812 327.921875 301.511719 328.941406 300.457031 L 328.945312 300.457031 C 328.984375 300.414062 329.003906 300.394531 329.003906 300.394531 C 329.003906 300.394531 344.566406 314.449219 344.902344 325.84375 Z M 344.902344 325.84375 " fill-opacity="1" fill-rule="nonzero"/><path fill="#3f3d56" d="M 329.605469 339.929688 L 334.917969 332.035156 L 329.617188 340.777344 L 329.628906 341.667969 C 329.242188 341.667969 328.855469 341.664062 328.476562 341.648438 L 328.738281 330.230469 L 328.734375 330.140625 L 328.742188 330.125 L 328.769531 329.046875 L 322.949219 320.609375 L 328.761719 328.238281 L 328.78125 328.46875 L 328.980469 319.84375 L 323.957031 311.09375 L 328.996094 318.328125 L 328.941406 300.457031 L 328.941406 300.398438 L 328.945312 300.457031 L 329.277344 314.539062 L 333.855469 308.820312 L 329.292969 315.753906 L 329.390625 323.46875 L 333.605469 315.9375 L 329.40625 324.601562 L 329.464844 328.894531 L 335.589844 318.402344 L 329.480469 330.390625 Z M 329.605469 339.929688 " fill-opacity="1" fill-rule="nonzero"/></svg>