<svg xmlns="http://www.w3.org/2000/svg" xmlns:xlink="http://www.w3.org/1999/xlink" width="640" zoomAndPan="magnify" viewBox="0 0 480 359.999987" height="480" preserveAspectRatio="xMidYMid meet" version="1.0"><defs><clipPath id="6c61ef5820"><path d="M 0 2.578125 L 357.621094 2.578125 L 357.621094 360 L 0 360 Z M 0 2.578125 " clip-rule="nonzero"/></clipPath><clipPath id="465014f41f"><path d="M 187.664062 249.699219 L 455.414062 249.699219 L 455.414062 360 L 187.664062 360 Z M 187.664062 249.699219 " clip-rule="nonzero"/></clipPath><clipPath id="fb3a3bddd3"><path d="M 205 53.640625 L 444 53.640625 L 444 207 L 205 207 Z M 205 53.640625 " clip-rule="nonzero"/></clipPath><clipPath id="7c507df6bf"><path d="M 205 53.640625 L 444 53.640625 L 444 64 L 205 64 Z M 205 53.640625 " clip-rule="nonzero"/></clipPath></defs><g clip-path="url(#6c61ef5820)"><path fill="#ab3a72" d="M 49.746094 2.578125 C -120.289062 2.578125 -258.128906 140.417969 -258.128906 310.453125 C -258.128906 480.488281 -120.289062 618.328125 49.746094 618.328125 C 219.777344 618.328125 357.621094 480.488281 357.621094 310.453125 C 357.621094 140.417969 219.777344 2.578125 49.746094 2.578125 " fill-opacity="1" fill-rule="nonzero"/></g><g clip-path="url(#465014f41f)"><path fill="#ffab57" d="M 321.539062 249.699219 C 247.601562 249.699219 187.664062 309.636719 187.664062 383.574219 C 187.664062 457.507812 247.601562 517.449219 321.539062 517.449219 C 395.476562 517.449219 455.414062 457.507812 455.414062 383.574219 C 455.414062 309.636719 395.476562 249.699219 321.539062 249.699219 " fill-opacity="1" fill-rule="nonzero"/></g><path fill="#f2f2f2" d="M 21.742188 343.820312 C 14.265625 349.09375 11.941406 358.648438 11.941406 358.648438 C 11.941406 358.648438 21.738281 359.652344 29.210938 354.378906 C 36.683594 349.105469 39.007812 339.550781 39.007812 339.550781 C 39.007812 339.550781 29.214844 338.542969 21.742188 343.820312 Z M 21.742188 343.820312 " fill-opacity="1" fill-rule="nonzero"/><path fill="#f2f2f2" d="M 24.730469 346.460938 C 20.988281 354.800781 12.050781 358.921875 12.050781 358.921875 C 12.050781 358.921875 9.175781 349.519531 12.917969 341.175781 C 16.65625 332.835938 25.59375 328.714844 25.59375 328.714844 C 25.59375 328.714844 28.46875 338.117188 24.730469 346.460938 Z M 24.730469 346.460938 " fill-opacity="1" fill-rule="nonzero"/><g clip-path="url(#fb3a3bddd3)"><path fill="#e5e5e5" d="M 205.351562 53.773438 L 443.941406 53.773438 L 443.941406 206.402344 L 205.351562 206.402344 Z M 205.351562 53.773438 " fill-opacity="1" fill-rule="nonzero"/></g><path fill="#ffffff" d="M 212.175781 72.917969 L 437.121094 72.917969 L 437.121094 131.101562 L 212.175781 131.101562 Z M 212.175781 72.917969 " fill-opacity="1" fill-rule="nonzero"/><path fill="#6c63ff" d="M 212.175781 139.183594 L 437.121094 139.183594 L 437.121094 197.367188 L 212.175781 197.367188 Z M 212.175781 139.183594 " fill-opacity="1" fill-rule="nonzero"/><g clip-path="url(#7c507df6bf)"><path fill="#3f3d56" d="M 205.25 53.640625 L 443.839844 53.640625 L 443.839844 63.765625 L 205.25 63.765625 Z M 205.25 53.640625 " fill-opacity="1" fill-rule="nonzero"/></g><path fill="#ffffff" d="M 214.664062 58.816406 C 214.664062 59.066406 214.613281 59.304688 214.519531 59.535156 C 214.425781 59.765625 214.289062 59.96875 214.113281 60.144531 C 213.9375 60.320312 213.734375 60.453125 213.503906 60.550781 C 213.273438 60.644531 213.035156 60.691406 212.785156 60.691406 C 212.535156 60.691406 212.296875 60.644531 212.066406 60.550781 C 211.835938 60.453125 211.632812 60.320312 211.457031 60.144531 C 211.28125 59.96875 211.144531 59.765625 211.046875 59.535156 C 210.953125 59.304688 210.90625 59.066406 210.90625 58.816406 C 210.90625 58.566406 210.953125 58.328125 211.046875 58.097656 C 211.144531 57.867188 211.28125 57.664062 211.457031 57.488281 C 211.632812 57.3125 211.835938 57.179688 212.066406 57.082031 C 212.296875 56.988281 212.535156 56.941406 212.785156 56.941406 C 213.035156 56.941406 213.273438 56.988281 213.503906 57.082031 C 213.734375 57.179688 213.9375 57.3125 214.113281 57.488281 C 214.289062 57.664062 214.425781 57.867188 214.519531 58.097656 C 214.613281 58.328125 214.664062 58.566406 214.664062 58.816406 Z M 214.664062 58.816406 " fill-opacity="1" fill-rule="nonzero"/><path fill="#ffffff" d="M 221.792969 58.816406 C 221.792969 59.066406 221.746094 59.304688 221.648438 59.535156 C 221.554688 59.765625 221.417969 59.96875 221.242188 60.144531 C 221.066406 60.320312 220.863281 60.453125 220.632812 60.550781 C 220.402344 60.644531 220.164062 60.691406 219.914062 60.691406 C 219.664062 60.691406 219.425781 60.644531 219.195312 60.550781 C 218.964844 60.453125 218.761719 60.320312 218.585938 60.144531 C 218.410156 59.96875 218.273438 59.765625 218.179688 59.535156 C 218.082031 59.304688 218.035156 59.066406 218.035156 58.816406 C 218.035156 58.566406 218.082031 58.328125 218.179688 58.097656 C 218.273438 57.867188 218.410156 57.664062 218.585938 57.488281 C 218.761719 57.3125 218.964844 57.179688 219.195312 57.082031 C 219.425781 56.988281 219.664062 56.941406 219.914062 56.941406 C 220.164062 56.941406 220.402344 56.988281 220.632812 57.082031 C 220.863281 57.179688 221.066406 57.3125 221.242188 57.488281 C 221.417969 57.664062 221.554688 57.867188 221.648438 58.097656 C 221.746094 58.328125 221.792969 58.566406 221.792969 58.816406 Z M 221.792969 58.816406 " fill-opacity="1" fill-rule="nonzero"/><path fill="#ffffff" d="M 228.925781 58.816406 C 228.925781 59.066406 228.875 59.304688 228.78125 59.535156 C 228.6875 59.765625 228.550781 59.96875 228.375 60.144531 C 228.199219 60.320312 227.996094 60.453125 227.765625 60.550781 C 227.535156 60.644531 227.296875 60.691406 227.046875 60.691406 C 226.796875 60.691406 226.558594 60.644531 226.328125 60.550781 C 226.097656 60.453125 225.894531 60.320312 225.71875 60.144531 C 225.542969 59.96875 225.40625 59.765625 225.308594 59.535156 C 225.214844 59.304688 225.167969 59.066406 225.167969 58.816406 C 225.167969 58.566406 225.214844 58.328125 225.308594 58.097656 C 225.40625 57.867188 225.542969 57.664062 225.71875 57.488281 C 225.894531 57.3125 226.097656 57.179688 226.328125 57.082031 C 226.558594 56.988281 226.796875 56.941406 227.046875 56.941406 C 227.296875 56.941406 227.535156 56.988281 227.765625 57.082031 C 227.996094 57.179688 228.199219 57.3125 228.375 57.488281 C 228.550781 57.664062 228.6875 57.867188 228.78125 58.097656 C 228.875 58.328125 228.925781 58.566406 228.925781 58.816406 Z M 228.925781 58.816406 " fill-opacity="1" fill-rule="nonzero"/><path fill="#cbcbcb" d="M 291.261719 91.203125 L 366.46875 91.203125 L 366.46875 94.753906 L 291.261719 94.753906 Z M 291.261719 91.203125 " fill-opacity="1" fill-rule="nonzero"/><path fill="#cbcbcb" d="M 291.261719 100.4375 L 366.46875 100.4375 L 366.46875 103.988281 L 291.261719 103.988281 Z M 291.261719 100.4375 " fill-opacity="1" fill-rule="nonzero"/><path fill="#cbcbcb" d="M 291.261719 109.671875 L 366.46875 109.671875 L 366.46875 113.222656 L 291.261719 113.222656 Z M 291.261719 109.671875 " fill-opacity="1" fill-rule="nonzero"/><path fill="#cbcbcb" d="M 287.46875 93.113281 C 287.46875 93.421875 287.410156 93.714844 287.292969 94 C 287.171875 94.285156 287.003906 94.535156 286.789062 94.753906 C 286.570312 94.96875 286.320312 95.136719 286.035156 95.253906 C 285.75 95.371094 285.453125 95.429688 285.148438 95.429688 C 284.839844 95.429688 284.542969 95.371094 284.257812 95.253906 C 283.976562 95.136719 283.722656 94.96875 283.507812 94.753906 C 283.289062 94.535156 283.121094 94.285156 283.003906 94 C 282.886719 93.714844 282.828125 93.421875 282.828125 93.113281 C 282.828125 92.804688 282.886719 92.511719 283.003906 92.226562 C 283.121094 91.941406 283.289062 91.691406 283.507812 91.472656 C 283.722656 91.257812 283.976562 91.089844 284.257812 90.972656 C 284.542969 90.855469 284.839844 90.796875 285.148438 90.796875 C 285.453125 90.796875 285.75 90.855469 286.035156 90.972656 C 286.320312 91.089844 286.570312 91.257812 286.789062 91.472656 C 287.003906 91.691406 287.171875 91.941406 287.292969 92.226562 C 287.410156 92.511719 287.46875 92.804688 287.46875 93.113281 Z M 287.46875 93.113281 " fill-opacity="1" fill-rule="nonzero"/><path fill="#ffffff" d="M 287.042969 157.261719 L 362.253906 157.261719 L 362.253906 160.816406 L 287.042969 160.816406 Z M 287.042969 157.261719 " fill-opacity="1" fill-rule="nonzero"/><path fill="#ffffff" d="M 287.042969 166.5 L 362.253906 166.5 L 362.253906 170.050781 L 287.042969 170.050781 Z M 287.042969 166.5 " fill-opacity="1" fill-rule="nonzero"/><path fill="#ffffff" d="M 287.042969 175.734375 L 362.253906 175.734375 L 362.253906 179.285156 L 287.042969 179.285156 Z M 287.042969 175.734375 " fill-opacity="1" fill-rule="nonzero"/><path fill="#ffffff" d="M 278.414062 158.488281 C 278.414062 158.796875 278.355469 159.09375 278.238281 159.375 C 278.117188 159.660156 277.949219 159.910156 277.734375 160.128906 C 277.515625 160.34375 277.265625 160.511719 276.980469 160.628906 C 276.695312 160.75 276.398438 160.808594 276.09375 160.808594 C 275.785156 160.808594 275.488281 160.75 275.203125 160.628906 C 274.921875 160.511719 274.667969 160.34375 274.453125 160.128906 C 274.234375 159.910156 274.066406 159.660156 273.949219 159.375 C 273.832031 159.09375 273.773438 158.796875 273.773438 158.488281 C 273.773438 158.183594 273.832031 157.886719 273.949219 157.601562 C 274.066406 157.316406 274.234375 157.066406 274.453125 156.851562 C 274.667969 156.632812 274.921875 156.464844 275.203125 156.347656 C 275.488281 156.230469 275.785156 156.171875 276.09375 156.171875 C 276.398438 156.171875 276.695312 156.230469 276.980469 156.347656 C 277.265625 156.464844 277.515625 156.632812 277.734375 156.851562 C 277.949219 157.066406 278.117188 157.316406 278.238281 157.601562 C 278.355469 157.886719 278.414062 158.183594 278.414062 158.488281 Z M 278.414062 158.488281 " fill-opacity="1" fill-rule="nonzero"/><path fill="#9f616a" d="M 103.984375 235.285156 L 96.605469 202.128906 L 94.925781 189.34375 L 82.449219 190.382812 L 83.726562 208.199219 L 96.824219 238.484375 C 96.683594 238.832031 96.578125 239.1875 96.511719 239.554688 C 96.441406 239.921875 96.410156 240.292969 96.414062 240.667969 C 96.417969 241.042969 96.460938 241.410156 96.535156 241.777344 C 96.613281 242.144531 96.726562 242.496094 96.875 242.839844 C 97.023438 243.183594 97.207031 243.507812 97.417969 243.816406 C 97.632812 244.125 97.875 244.40625 98.144531 244.667969 C 98.414062 244.925781 98.707031 245.15625 99.019531 245.359375 C 99.335938 245.558594 99.667969 245.726562 100.015625 245.863281 C 100.367188 246 100.726562 246.101562 101.09375 246.164062 C 101.460938 246.226562 101.835938 246.257812 102.207031 246.246094 C 102.582031 246.238281 102.953125 246.191406 103.316406 246.109375 C 103.683594 246.027344 104.035156 245.910156 104.378906 245.757812 C 104.71875 245.601562 105.042969 245.417969 105.347656 245.203125 C 105.652344 244.984375 105.933594 244.738281 106.191406 244.46875 C 106.445312 244.195312 106.671875 243.898438 106.871094 243.582031 C 107.066406 243.265625 107.234375 242.929688 107.363281 242.582031 C 107.496094 242.230469 107.589844 241.871094 107.652344 241.5 C 107.710938 241.132812 107.734375 240.761719 107.71875 240.386719 C 107.703125 240.015625 107.652344 239.644531 107.566406 239.28125 C 107.480469 238.917969 107.355469 238.566406 107.199219 238.226562 C 107.042969 237.886719 106.851562 237.566406 106.632812 237.265625 C 106.410156 236.964844 106.164062 236.6875 105.886719 236.433594 C 105.609375 236.179688 105.3125 235.957031 104.992188 235.765625 C 104.671875 235.570312 104.335938 235.410156 103.984375 235.285156 Z M 103.984375 235.285156 " fill-opacity="1" fill-rule="nonzero"/><path fill="#9f616a" d="M 122.109375 352.390625 L 128.414062 352.390625 L 131.410156 328.109375 L 122.109375 328.109375 Z M 122.109375 352.390625 " fill-opacity="1" fill-rule="nonzero"/><path fill="#2f2e41" d="M 120.503906 350.335938 L 132.914062 350.335938 C 133.433594 350.335938 133.949219 350.386719 134.457031 350.488281 C 134.96875 350.589844 135.464844 350.738281 135.941406 350.9375 C 136.421875 351.136719 136.878906 351.378906 137.308594 351.667969 C 137.742188 351.953125 138.140625 352.28125 138.507812 352.648438 C 138.875 353.015625 139.203125 353.414062 139.492188 353.847656 C 139.78125 354.277344 140.023438 354.734375 140.222656 355.210938 C 140.421875 355.691406 140.574219 356.1875 140.675781 356.695312 C 140.773438 357.203125 140.824219 357.71875 140.824219 358.234375 L 140.824219 358.492188 L 120.503906 358.492188 Z M 120.503906 350.335938 " fill-opacity="1" fill-rule="nonzero"/><path fill="#9f616a" d="M 70.585938 347.746094 L 76.671875 349.378906 L 85.882812 326.707031 L 76.898438 324.296875 Z M 70.585938 347.746094 " fill-opacity="1" fill-rule="nonzero"/><path fill="#2f2e41" d="M 69.566406 345.34375 L 81.554688 348.5625 C 82.054688 348.699219 82.539062 348.878906 83.003906 349.109375 C 83.46875 349.339844 83.910156 349.613281 84.320312 349.929688 C 84.730469 350.246094 85.109375 350.597656 85.453125 350.988281 C 85.792969 351.378906 86.09375 351.800781 86.351562 352.25 C 86.613281 352.699219 86.824219 353.167969 86.992188 353.660156 C 87.160156 354.152344 87.273438 354.65625 87.34375 355.167969 C 87.410156 355.683594 87.425781 356.199219 87.390625 356.71875 C 87.355469 357.234375 87.273438 357.746094 87.136719 358.246094 L 87.070312 358.492188 L 67.445312 353.21875 Z M 69.566406 345.34375 " fill-opacity="1" fill-rule="nonzero"/><path fill="#2f2e41" d="M 132.195312 245.941406 L 134.992188 250.769531 C 134.992188 250.769531 138.0625 251.605469 137.058594 261.601562 C 136.054688 271.597656 131.078125 296.332031 131.078125 296.332031 C 131.078125 296.332031 136.011719 330.824219 131.15625 338.113281 L 130.277344 344.371094 L 121.105469 345.246094 L 120.875 339.691406 C 120.875 339.691406 114.238281 314.179688 115.390625 303.03125 L 109.9375 262.546875 C 109.9375 262.546875 98.367188 292.144531 94.820312 297.757812 C 94.820312 297.757812 88.886719 332.199219 83.558594 334.054688 L 81.636719 340.363281 L 71.980469 338.960938 L 73.726562 331.714844 C 73.726562 331.714844 73.824219 297.867188 81.703125 288.179688 L 87.792969 245.160156 Z M 132.195312 245.941406 " fill-opacity="1" fill-rule="nonzero"/><path fill="#cbcbcb" d="M 116.769531 252.960938 C 112.484375 252.960938 108.507812 252.332031 106.183594 250.445312 C 102.8125 247.714844 98.515625 248.292969 94.726562 248.800781 C 90.929688 249.3125 87.648438 249.753906 86.425781 246.65625 L 86.40625 246.601562 L 86.410156 246.542969 L 90.191406 195.929688 L 85.171875 178.429688 L 85.183594 178.367188 C 85.199219 178.28125 87.0625 169.617188 95.253906 165.523438 L 106.296875 160.460938 L 124.199219 161.933594 L 135.429688 170.824219 L 135.429688 170.949219 L 135.460938 250.351562 L 135.269531 250.402344 C 134.671875 250.554688 125.140625 252.960938 116.769531 252.960938 Z M 116.769531 252.960938 " fill-opacity="1" fill-rule="nonzero"/><path fill="#cbcbcb" d="M 92.765625 195.390625 L 81.246094 191.710938 L 85.429688 177.152344 L 91.382812 177.808594 Z M 92.765625 195.390625 " fill-opacity="1" fill-rule="nonzero"/><path fill="#9f616a" d="M 146.652344 243.5 L 139.277344 210.34375 L 137.597656 197.558594 L 125.117188 198.597656 L 126.398438 216.414062 L 139.496094 246.699219 C 139.355469 247.046875 139.25 247.402344 139.179688 247.773438 C 139.113281 248.140625 139.078125 248.511719 139.082031 248.882812 C 139.089844 249.257812 139.128906 249.628906 139.207031 249.992188 C 139.285156 250.359375 139.398438 250.714844 139.546875 251.058594 C 139.695312 251.398438 139.875 251.726562 140.089844 252.03125 C 140.304688 252.339844 140.542969 252.625 140.8125 252.882812 C 141.082031 253.140625 141.375 253.371094 141.691406 253.574219 C 142.007812 253.777344 142.339844 253.945312 142.6875 254.082031 C 143.035156 254.214844 143.394531 254.316406 143.765625 254.378906 C 144.132812 254.445312 144.503906 254.472656 144.878906 254.460938 C 145.253906 254.453125 145.621094 254.40625 145.988281 254.324219 C 146.351562 254.242188 146.707031 254.125 147.046875 253.972656 C 147.390625 253.820312 147.710938 253.632812 148.019531 253.417969 C 148.324219 253.199219 148.601562 252.957031 148.859375 252.683594 C 149.117188 252.410156 149.34375 252.117188 149.539062 251.796875 C 149.738281 251.480469 149.902344 251.148438 150.035156 250.796875 C 150.164062 250.445312 150.261719 250.085938 150.320312 249.71875 C 150.378906 249.347656 150.402344 248.976562 150.390625 248.601562 C 150.375 248.230469 150.324219 247.859375 150.238281 247.496094 C 150.148438 247.132812 150.027344 246.78125 149.871094 246.441406 C 149.710938 246.105469 149.523438 245.785156 149.300781 245.480469 C 149.082031 245.179688 148.832031 244.902344 148.558594 244.648438 C 148.28125 244.398438 147.980469 244.175781 147.660156 243.980469 C 147.339844 243.789062 147.003906 243.628906 146.652344 243.5 Z M 146.652344 243.5 " fill-opacity="1" fill-rule="nonzero"/><path fill="#cbcbcb" d="M 123.402344 200.746094 L 122.421875 187.695312 L 134.835938 170.503906 L 134.960938 170.5 C 135.011719 170.5 140.003906 170.410156 140.90625 178.050781 C 141.78125 185.5 139.101562 199.351562 139.074219 199.488281 L 139.035156 199.683594 Z M 123.402344 200.746094 " fill-opacity="1" fill-rule="nonzero"/><path fill="#9f616a" d="M 128.375 143.355469 C 128.5 144.117188 128.546875 144.878906 128.519531 145.648438 C 128.492188 146.414062 128.390625 147.171875 128.214844 147.921875 C 128.035156 148.667969 127.789062 149.390625 127.46875 150.089844 C 127.148438 150.789062 126.765625 151.453125 126.316406 152.074219 C 125.863281 152.699219 125.359375 153.273438 124.796875 153.796875 C 124.230469 154.320312 123.625 154.785156 122.96875 155.1875 C 122.316406 155.59375 121.625 155.929688 120.90625 156.195312 C 120.183594 156.464844 119.445312 156.660156 118.6875 156.785156 C 117.925781 156.90625 117.160156 156.957031 116.394531 156.929688 C 115.625 156.902344 114.863281 156.800781 114.117188 156.621094 C 113.367188 156.445312 112.644531 156.199219 111.941406 155.878906 C 111.242188 155.558594 110.582031 155.175781 109.957031 154.726562 C 109.332031 154.277344 108.757812 153.769531 108.234375 153.207031 C 107.710938 152.644531 107.246094 152.039062 106.839844 151.382812 C 106.4375 150.730469 106.097656 150.042969 105.832031 149.324219 C 105.5625 148.605469 105.367188 147.863281 105.242188 147.105469 C 105.117188 146.347656 105.070312 145.585938 105.097656 144.816406 C 105.125 144.046875 105.226562 143.289062 105.402344 142.542969 C 105.582031 141.792969 105.828125 141.070312 106.148438 140.371094 C 106.46875 139.671875 106.851562 139.011719 107.300781 138.386719 C 107.753906 137.765625 108.257812 137.191406 108.820312 136.667969 C 109.386719 136.144531 109.992188 135.679688 110.648438 135.273438 C 111.304688 134.871094 111.992188 134.535156 112.710938 134.265625 C 113.433594 133.996094 114.171875 133.800781 114.933594 133.679688 C 115.691406 133.554688 116.457031 133.507812 117.222656 133.535156 C 117.992188 133.5625 118.753906 133.664062 119.5 133.839844 C 120.25 134.015625 120.972656 134.265625 121.675781 134.582031 C 122.375 134.902344 123.035156 135.285156 123.660156 135.738281 C 124.285156 136.1875 124.859375 136.691406 125.382812 137.253906 C 125.90625 137.816406 126.371094 138.425781 126.777344 139.078125 C 127.179688 139.730469 127.519531 140.417969 127.785156 141.140625 C 128.054688 141.859375 128.253906 142.597656 128.375 143.355469 Z M 128.375 143.355469 " fill-opacity="1" fill-rule="nonzero"/><path fill="#2f2e41" d="M 127.515625 143.492188 C 127.515625 143.492188 127.609375 139.375 128.132812 137.554688 C 128.652344 135.734375 129.695312 134.171875 129.171875 134.171875 C 128.652344 134.171875 128.390625 132.871094 128.390625 132.871094 C 128.390625 132.871094 127.871094 132.613281 127.609375 132.871094 C 127.351562 133.132812 127.089844 131.050781 127.089844 131.050781 C 127.089844 131.050781 126.828125 130.273438 126.570312 130.792969 C 126.308594 131.3125 126.308594 131.050781 126.046875 130.273438 C 125.789062 129.492188 124.484375 128.972656 124.484375 128.972656 C 124.484375 128.972656 119.539062 129.230469 118.757812 128.191406 C 117.976562 127.152344 109.121094 127.929688 107.300781 129.230469 C 105.476562 130.53125 97.402344 135.214844 98.707031 139.117188 C 100.007812 143.015625 103.757812 152 104.695312 152.902344 C 106.179688 154.324219 107.207031 154.839844 114.238281 156.234375 C 115.613281 156.507812 122.632812 152.023438 122.632812 151.242188 C 122.632812 150.464844 121.785156 147.988281 123.144531 147.648438 C 125.203125 147.136719 125.433594 149.734375 125.953125 148.953125 C 126.476562 148.171875 127.515625 143.492188 127.515625 143.492188 Z M 127.515625 143.492188 " fill-opacity="1" fill-rule="nonzero"/><path fill="#cbcbcb" d="M 196.449219 358.703125 L 0.578125 358.703125 C 0.4375 358.703125 0.316406 358.652344 0.214844 358.550781 C 0.113281 358.449219 0.0625 358.328125 0.0625 358.1875 C 0.0625 358.046875 0.113281 357.925781 0.214844 357.824219 C 0.316406 357.726562 0.4375 357.675781 0.578125 357.675781 L 196.449219 357.675781 C 196.589844 357.675781 196.710938 357.726562 196.8125 357.824219 C 196.914062 357.925781 196.964844 358.046875 196.964844 358.1875 C 196.964844 358.328125 196.914062 358.449219 196.8125 358.550781 C 196.710938 358.652344 196.589844 358.703125 196.449219 358.703125 Z M 196.449219 358.703125 " fill-opacity="1" fill-rule="nonzero"/></svg>