<svg xmlns="http://www.w3.org/2000/svg" xmlns:xlink="http://www.w3.org/1999/xlink" width="720" zoomAndPan="magnify" viewBox="0 0 540 540.000001" height="720" preserveAspectRatio="xMidYMid meet" version="1.0"><defs><g/><clipPath id="9dcca077be"><path d="M 13.609375 240.527344 L 526.410156 240.527344 L 526.410156 298.171875 L 13.609375 298.171875 Z M 13.609375 240.527344 " clip-rule="nonzero"/></clipPath></defs><g fill="#ff5757" fill-opacity="1"><g transform="translate(27.079292, 381.256976)"><g><path d="M 74.816406 -46.742188 C 74.816406 -37.898438 68.21875 -30.738281 59.234375 -30.738281 C 50.953125 -30.738281 44.355469 -37.476562 44.355469 -47.445312 L 44.355469 -147.242188 C 44.355469 -156.226562 50.109375 -163.523438 59.09375 -163.523438 C 68.636719 -163.523438 74.113281 -155.242188 74.113281 -146.820312 L 74.113281 -134.46875 C 74.113281 -130.679688 74.953125 -129.136719 78.183594 -129.136719 L 104.710938 -129.136719 C 107.941406 -129.136719 109.0625 -130.820312 109.0625 -135.03125 L 109.0625 -147.804688 C 109.0625 -165.628906 98.816406 -197.214844 59.375 -197.214844 C 31.160156 -197.214844 7.019531 -178.964844 7.019531 -148.507812 L 7.019531 -45.617188 C 7.019531 -14.597656 31.582031 3.089844 59.234375 3.089844 C 87.449219 3.089844 109.90625 -15.160156 109.90625 -45.617188 L 109.90625 -99.660156 C 109.90625 -103.027344 108.222656 -104.992188 104.851562 -104.992188 L 64.425781 -104.992188 C 61.621094 -104.992188 60.214844 -103.308594 60.214844 -100.082031 L 60.214844 -78.746094 C 60.214844 -75.375 61.621094 -73.972656 64.425781 -73.972656 L 74.816406 -73.972656 Z M 74.816406 -46.742188 "/></g></g></g><g fill="#ff5757" fill-opacity="1"><g transform="translate(157.815308, 381.256976)"><g><path d="M 76.921875 -78.042969 C 96.289062 -84.359375 110.746094 -100.5 110.746094 -123.941406 L 110.746094 -191.175781 C 110.746094 -193.140625 109.625 -194.265625 107.800781 -194.265625 L 76.359375 -194.265625 C 74.253906 -194.265625 73.269531 -192.863281 73.269531 -191.035156 L 73.269531 -125.066406 C 73.269531 -116.222656 67.9375 -109.0625 58.25 -109.0625 C 48.566406 -109.0625 43.371094 -117.066406 43.371094 -125.90625 L 43.371094 -191.316406 C 43.371094 -192.863281 42.109375 -194.265625 39.863281 -194.265625 L 8.984375 -194.265625 C 6.878906 -194.265625 6.035156 -192.863281 6.035156 -191.035156 L 5.894531 -123.941406 C 5.894531 -101.0625 20.210938 -84.640625 39.582031 -78.183594 L 39.582031 -5.472656 C 39.582031 -1.964844 40.847656 0 43.792969 0 L 72.847656 0 C 75.796875 0 76.921875 -1.964844 76.921875 -5.472656 Z M 76.921875 -78.042969 "/></g></g></g><g fill="#ff5757" fill-opacity="1"><g transform="translate(288.832054, 381.256976)"><g><path d="M 70.605469 -137.980469 C 70.605469 -134.046875 71.164062 -132.644531 74.675781 -132.644531 L 99.800781 -132.644531 C 104.292969 -132.644531 105.273438 -134.046875 105.273438 -137.980469 L 105.273438 -145.980469 C 105.273438 -177 84.5 -197.214844 55.445312 -197.214844 C 35.792969 -197.214844 5.613281 -183.316406 5.613281 -146.820312 C 5.613281 -114.679688 18.808594 -105.414062 48.144531 -81.550781 C 65.410156 -67.515625 72.710938 -61.199219 72.710938 -47.582031 C 72.710938 -37.335938 65.550781 -30.878906 56.707031 -30.878906 C 49.550781 -30.878906 40.707031 -35.371094 40.707031 -49.410156 L 40.707031 -55.726562 C 40.707031 -59.9375 39.863281 -61.480469 35.933594 -61.480469 L 10.386719 -61.480469 C 6.457031 -61.480469 5.613281 -59.515625 5.613281 -54.742188 L 5.613281 -47.304688 C 5.613281 -20.914062 22.597656 3.089844 56.425781 3.089844 C 87.449219 3.089844 108.222656 -19.371094 108.222656 -45.617188 C 108.222656 -81.132812 87.308594 -96.429688 61.058594 -116.785156 C 48.566406 -126.46875 40.285156 -132.503906 40.285156 -145.839844 C 40.285156 -158.613281 48.425781 -163.523438 55.445312 -163.523438 C 65.550781 -163.523438 70.605469 -155.523438 70.605469 -145.839844 Z M 70.605469 -137.980469 "/></g></g></g><g fill="#ff5757" fill-opacity="1"><g transform="translate(415.497468, 381.256976)"><g><path d="M 93.625 -160.15625 C 96.007812 -160.15625 97.695312 -161.839844 97.695312 -165.210938 L 97.695312 -189.210938 C 97.695312 -192.582031 96.007812 -194.265625 93.625 -194.265625 L 3.929688 -194.265625 C 1.542969 -194.265625 -0.140625 -192.441406 -0.140625 -189.070312 L -0.140625 -165.210938 C -0.140625 -161.839844 1.542969 -160.15625 3.929688 -160.15625 L 30.039062 -160.15625 L 30.039062 -4.914062 C 30.039062 -1.683594 31.722656 0 34.109375 0 L 63.445312 0 C 65.691406 0 67.515625 -1.683594 67.515625 -4.914062 L 67.515625 -160.15625 Z M 93.625 -160.15625 "/></g></g></g><g clip-path="url(#9dcca077be)"><path fill="#000000" d="M 13.65625 240.527344 L 526.367188 240.527344 L 526.367188 298.171875 L 13.65625 298.171875 L 13.65625 240.527344 " fill-opacity="1" fill-rule="nonzero"/></g><g fill="#d9d9d9" fill-opacity="1"><g transform="translate(65.459411, 278.663965)"><g><path d="M 6.730469 -4.207031 C 6.730469 -3.410156 6.136719 -2.765625 5.328125 -2.765625 C 4.585938 -2.765625 3.992188 -3.371094 3.992188 -4.269531 L 3.992188 -13.246094 C 3.992188 -14.054688 4.507812 -14.714844 5.316406 -14.714844 C 6.175781 -14.714844 6.667969 -13.96875 6.667969 -13.210938 L 6.667969 -12.097656 C 6.667969 -11.757812 6.742188 -11.617188 7.035156 -11.617188 L 9.421875 -11.617188 C 9.710938 -11.617188 9.8125 -11.769531 9.8125 -12.148438 L 9.8125 -13.296875 C 9.8125 -14.902344 8.890625 -17.742188 5.34375 -17.742188 C 2.804688 -17.742188 0.632812 -16.101562 0.632812 -13.363281 L 0.632812 -4.105469 C 0.632812 -1.3125 2.839844 0.277344 5.328125 0.277344 C 7.867188 0.277344 9.886719 -1.363281 9.886719 -4.105469 L 9.886719 -8.964844 C 9.886719 -9.269531 9.738281 -9.445312 9.433594 -9.445312 L 5.796875 -9.445312 C 5.542969 -9.445312 5.417969 -9.296875 5.417969 -9.003906 L 5.417969 -7.085938 C 5.417969 -6.78125 5.542969 -6.65625 5.796875 -6.65625 L 6.730469 -6.65625 Z M 6.730469 -4.207031 "/></g></g></g><g fill="#d9d9d9" fill-opacity="1"><g transform="translate(89.252163, 278.663965)"><g><path d="M 4.269531 -16.984375 C 4.269531 -17.289062 4.140625 -17.480469 3.851562 -17.480469 L 1.324219 -17.480469 C 1.0625 -17.480469 0.910156 -17.289062 0.910156 -16.984375 L 0.910156 -0.480469 C 0.910156 -0.175781 1.035156 0 1.324219 0 L 3.851562 0 C 4.140625 0 4.269531 -0.175781 4.269531 -0.480469 Z M 4.269531 -16.984375 "/></g></g></g><g fill="#d9d9d9" fill-opacity="1"><g transform="translate(107.766386, 278.663965)"><g><path d="M 8.421875 -14.410156 C 8.636719 -14.410156 8.789062 -14.5625 8.789062 -14.863281 L 8.789062 -17.023438 C 8.789062 -17.328125 8.636719 -17.480469 8.421875 -17.480469 L 0.355469 -17.480469 C 0.140625 -17.480469 -0.0117188 -17.316406 -0.0117188 -17.011719 L -0.0117188 -14.863281 C -0.0117188 -14.5625 0.140625 -14.410156 0.355469 -14.410156 L 2.703125 -14.410156 L 2.703125 -0.441406 C 2.703125 -0.152344 2.855469 0 3.070312 0 L 5.707031 0 C 5.910156 0 6.074219 -0.152344 6.074219 -0.441406 L 6.074219 -14.410156 Z M 8.421875 -14.410156 "/></g></g></g><g fill="#d9d9d9" fill-opacity="1"><g transform="translate(129.854344, 278.663965)"><g><path d="M 6.921875 -7.023438 C 8.664062 -7.589844 9.964844 -9.042969 9.964844 -11.152344 L 9.964844 -17.199219 C 9.964844 -17.378906 9.863281 -17.480469 9.699219 -17.480469 L 6.871094 -17.480469 C 6.679688 -17.480469 6.59375 -17.351562 6.59375 -17.1875 L 6.59375 -11.253906 C 6.59375 -10.457031 6.113281 -9.8125 5.242188 -9.8125 C 4.371094 -9.8125 3.902344 -10.53125 3.902344 -11.328125 L 3.902344 -17.214844 C 3.902344 -17.351562 3.789062 -17.480469 3.585938 -17.480469 L 0.808594 -17.480469 C 0.617188 -17.480469 0.542969 -17.351562 0.542969 -17.1875 L 0.53125 -11.152344 C 0.53125 -9.09375 1.820312 -7.617188 3.5625 -7.035156 L 3.5625 -0.492188 C 3.5625 -0.175781 3.675781 0 3.941406 0 L 6.554688 0 C 6.820312 0 6.921875 -0.175781 6.921875 -0.492188 Z M 6.921875 -7.023438 "/></g></g></g><g fill="#d9d9d9" fill-opacity="1"><g transform="translate(153.672351, 278.663965)"><g><path d="M 10.066406 -13.363281 C 10.066406 -16.113281 7.867188 -17.742188 5.328125 -17.742188 C 2.804688 -17.742188 0.632812 -16.101562 0.632812 -13.363281 L 0.632812 -4.105469 C 0.632812 -1.425781 2.804688 0.277344 5.328125 0.277344 C 7.867188 0.277344 10.066406 -1.363281 10.066406 -4.105469 Z M 5.355469 -14.714844 C 6.199219 -14.714844 6.707031 -13.980469 6.707031 -13.171875 L 6.707031 -4.207031 C 6.707031 -3.410156 6.199219 -2.765625 5.328125 -2.765625 C 4.472656 -2.765625 3.992188 -3.484375 3.992188 -4.28125 L 3.992188 -13.171875 C 3.992188 -13.980469 4.496094 -14.714844 5.355469 -14.714844 Z M 5.355469 -14.714844 "/></g></g></g><g fill="#d9d9d9" fill-opacity="1"><g transform="translate(177.692401, 278.663965)"><g><path d="M 6.859375 -4.292969 C 6.859375 -3.5 6.363281 -2.765625 5.519531 -2.765625 C 4.660156 -2.765625 4.167969 -3.5 4.167969 -4.292969 L 4.167969 -16.984375 C 4.167969 -17.25 4.09375 -17.480469 3.789062 -17.480469 L 1.125 -17.480469 C 0.945312 -17.480469 0.796875 -17.25 0.796875 -16.984375 L 0.796875 -4.105469 C 0.796875 -1.679688 2.980469 0.277344 5.507812 0.277344 C 8.03125 0.277344 10.230469 -1.679688 10.230469 -4.105469 L 10.230469 -16.972656 C 10.230469 -17.226562 10.101562 -17.480469 9.824219 -17.480469 L 7.261719 -17.480469 C 6.996094 -17.480469 6.859375 -17.238281 6.859375 -16.972656 Z M 6.859375 -4.292969 "/></g></g></g><g fill="#d9d9d9" fill-opacity="1"><g transform="translate(202.040782, 278.663965)"><g><path d="M 6.984375 -10.824219 C 6.984375 -9.964844 6.453125 -9.394531 5.441406 -9.394531 L 4.269531 -9.394531 L 4.269531 -14.410156 L 5.53125 -14.410156 C 6.402344 -14.410156 6.984375 -13.828125 6.984375 -12.917969 Z M 9.789062 -0.0117188 C 10.128906 -0.0117188 10.242188 -0.316406 10.242188 -0.542969 L 10.242188 -2.816406 C 10.242188 -5.34375 9.6875 -6.933594 8.550781 -7.894531 C 9.574219 -8.574219 10.355469 -9.609375 10.355469 -11.113281 L 10.355469 -12.917969 C 10.355469 -15.433594 8.398438 -17.480469 5.796875 -17.480469 L 1.339844 -17.480469 C 1.074219 -17.480469 0.910156 -17.289062 0.910156 -16.984375 L 0.910156 -0.46875 C 0.910156 -0.175781 1.035156 0 1.324219 0 L 3.851562 0 C 4.128906 0 4.269531 -0.175781 4.269531 -0.46875 L 4.269531 -6.792969 C 6 -6.679688 6.882812 -5.65625 6.882812 -3.21875 L 6.882812 -0.582031 C 6.882812 -0.203125 7.171875 -0.0117188 7.464844 -0.0117188 Z M 9.789062 -0.0117188 "/></g></g></g><g fill="#ff5757" fill-opacity="1"><g transform="translate(226.399652, 278.663965)"><g><path d="M 6.351562 -12.414062 C 6.351562 -12.0625 6.402344 -11.933594 6.71875 -11.933594 L 8.980469 -11.933594 C 9.382812 -11.933594 9.472656 -12.0625 9.472656 -12.414062 L 9.472656 -13.132812 C 9.472656 -15.925781 7.601562 -17.742188 4.988281 -17.742188 C 3.21875 -17.742188 0.503906 -16.492188 0.503906 -13.210938 C 0.503906 -10.316406 1.691406 -9.484375 4.332031 -7.335938 C 5.886719 -6.074219 6.542969 -5.507812 6.542969 -4.28125 C 6.542969 -3.359375 5.898438 -2.777344 5.101562 -2.777344 C 4.457031 -2.777344 3.664062 -3.183594 3.664062 -4.445312 L 3.664062 -5.015625 C 3.664062 -5.394531 3.585938 -5.53125 3.234375 -5.53125 L 0.933594 -5.53125 C 0.582031 -5.53125 0.503906 -5.355469 0.503906 -4.925781 L 0.503906 -4.257812 C 0.503906 -1.882812 2.035156 0.277344 5.078125 0.277344 C 7.867188 0.277344 9.738281 -1.742188 9.738281 -4.105469 C 9.738281 -7.300781 7.855469 -8.675781 5.492188 -10.507812 C 4.371094 -11.378906 3.625 -11.921875 3.625 -13.121094 C 3.625 -14.269531 4.355469 -14.714844 4.988281 -14.714844 C 5.898438 -14.714844 6.351562 -13.992188 6.351562 -13.121094 Z M 6.351562 -12.414062 "/></g></g></g><g fill="#ff5757" fill-opacity="1"><g transform="translate(249.826185, 278.663965)"><g><path d="M 7.476562 -17.480469 C 7.1875 -17.480469 7.046875 -17.25 7.046875 -16.984375 L 7.046875 -10.46875 L 4.269531 -10.46875 L 4.269531 -16.984375 C 4.269531 -17.289062 4.140625 -17.480469 3.851562 -17.480469 L 1.324219 -17.480469 C 1.046875 -17.480469 0.910156 -17.289062 0.910156 -16.984375 L 0.910156 -0.480469 C 0.910156 -0.175781 1.035156 0 1.324219 0 L 3.851562 0 C 4.140625 0 4.269531 -0.175781 4.269531 -0.480469 L 4.269531 -7.425781 L 7.046875 -7.425781 L 7.046875 -0.480469 C 7.046875 -0.175781 7.199219 0 7.476562 0 L 9.953125 0 C 10.28125 0 10.40625 -0.175781 10.40625 -0.480469 L 10.40625 -17 C 10.40625 -17.363281 10.203125 -17.480469 9.988281 -17.480469 Z M 7.476562 -17.480469 "/></g></g></g><g fill="#ff5757" fill-opacity="1"><g transform="translate(274.477644, 278.663965)"><g><path d="M 4.269531 -16.984375 C 4.269531 -17.289062 4.140625 -17.480469 3.851562 -17.480469 L 1.324219 -17.480469 C 1.0625 -17.480469 0.910156 -17.289062 0.910156 -16.984375 L 0.910156 -0.480469 C 0.910156 -0.175781 1.035156 0 1.324219 0 L 3.851562 0 C 4.140625 0 4.269531 -0.175781 4.269531 -0.480469 Z M 4.269531 -16.984375 "/></g></g></g><g fill="#ff5757" fill-opacity="1"><g transform="translate(292.991868, 278.663965)"><g><path d="M 8.421875 -14.410156 C 8.636719 -14.410156 8.789062 -14.5625 8.789062 -14.863281 L 8.789062 -17.023438 C 8.789062 -17.328125 8.636719 -17.480469 8.421875 -17.480469 L 0.355469 -17.480469 C 0.140625 -17.480469 -0.0117188 -17.316406 -0.0117188 -17.011719 L -0.0117188 -14.863281 C -0.0117188 -14.5625 0.140625 -14.410156 0.355469 -14.410156 L 2.703125 -14.410156 L 2.703125 -0.441406 C 2.703125 -0.152344 2.855469 0 3.070312 0 L 5.707031 0 C 5.910156 0 6.074219 -0.152344 6.074219 -0.441406 L 6.074219 -14.410156 Z M 8.421875 -14.410156 "/></g></g></g><g fill="#d9d9d9" fill-opacity="1"><g transform="translate(315.075275, 278.663965)"><g><path d="M 8.421875 -14.410156 C 8.636719 -14.410156 8.789062 -14.5625 8.789062 -14.863281 L 8.789062 -17.023438 C 8.789062 -17.328125 8.636719 -17.480469 8.421875 -17.480469 L 0.355469 -17.480469 C 0.140625 -17.480469 -0.0117188 -17.316406 -0.0117188 -17.011719 L -0.0117188 -14.863281 C -0.0117188 -14.5625 0.140625 -14.410156 0.355469 -14.410156 L 2.703125 -14.410156 L 2.703125 -0.441406 C 2.703125 -0.152344 2.855469 0 3.070312 0 L 5.707031 0 C 5.910156 0 6.074219 -0.152344 6.074219 -0.441406 L 6.074219 -14.410156 Z M 8.421875 -14.410156 "/></g></g></g><g fill="#d9d9d9" fill-opacity="1"><g transform="translate(337.163233, 278.663965)"><g><path d="M 10.066406 -13.363281 C 10.066406 -16.113281 7.867188 -17.742188 5.328125 -17.742188 C 2.804688 -17.742188 0.632812 -16.101562 0.632812 -13.363281 L 0.632812 -4.105469 C 0.632812 -1.425781 2.804688 0.277344 5.328125 0.277344 C 7.867188 0.277344 10.066406 -1.363281 10.066406 -4.105469 Z M 5.355469 -14.714844 C 6.199219 -14.714844 6.707031 -13.980469 6.707031 -13.171875 L 6.707031 -4.207031 C 6.707031 -3.410156 6.199219 -2.765625 5.328125 -2.765625 C 4.472656 -2.765625 3.992188 -3.484375 3.992188 -4.28125 L 3.992188 -13.171875 C 3.992188 -13.980469 4.496094 -14.714844 5.355469 -14.714844 Z M 5.355469 -14.714844 "/></g></g></g><g fill="#d9d9d9" fill-opacity="1"><g transform="translate(361.183289, 278.663965)"><g><path d="M 6.730469 -4.207031 C 6.730469 -3.410156 6.136719 -2.765625 5.328125 -2.765625 C 4.585938 -2.765625 3.992188 -3.371094 3.992188 -4.269531 L 3.992188 -13.246094 C 3.992188 -14.054688 4.507812 -14.714844 5.316406 -14.714844 C 6.175781 -14.714844 6.667969 -13.96875 6.667969 -13.210938 L 6.667969 -12.097656 C 6.667969 -11.757812 6.742188 -11.617188 7.035156 -11.617188 L 9.421875 -11.617188 C 9.710938 -11.617188 9.8125 -11.769531 9.8125 -12.148438 L 9.8125 -13.296875 C 9.8125 -14.902344 8.890625 -17.742188 5.34375 -17.742188 C 2.804688 -17.742188 0.632812 -16.101562 0.632812 -13.363281 L 0.632812 -4.105469 C 0.632812 -1.3125 2.839844 0.277344 5.328125 0.277344 C 7.867188 0.277344 9.886719 -1.363281 9.886719 -4.105469 L 9.886719 -8.964844 C 9.886719 -9.269531 9.738281 -9.445312 9.433594 -9.445312 L 5.796875 -9.445312 C 5.542969 -9.445312 5.417969 -9.296875 5.417969 -9.003906 L 5.417969 -7.085938 C 5.417969 -6.78125 5.542969 -6.65625 5.796875 -6.65625 L 6.730469 -6.65625 Z M 6.730469 -4.207031 "/></g></g></g><g fill="#d9d9d9" fill-opacity="1"><g transform="translate(384.97604, 278.663965)"><g><path d="M 4.269531 -3.042969 L 4.269531 -7.324219 L 7.957031 -7.324219 C 8.195312 -7.324219 8.359375 -7.453125 8.359375 -7.753906 L 8.359375 -9.914062 C 8.359375 -10.230469 8.171875 -10.355469 7.957031 -10.355469 L 4.269531 -10.355469 L 4.269531 -14.410156 L 8.890625 -14.410156 C 9.117188 -14.410156 9.246094 -14.5625 9.246094 -14.863281 L 9.246094 -17.011719 C 9.246094 -17.328125 9.117188 -17.480469 8.890625 -17.480469 L 1.339844 -17.480469 C 1.074219 -17.480469 0.910156 -17.289062 0.910156 -16.984375 L 0.910156 -0.480469 C 0.910156 -0.175781 1.046875 0 1.339844 0 L 8.953125 0 C 9.15625 0 9.320312 -0.140625 9.320312 -0.441406 L 9.320312 -2.613281 C 9.320312 -2.90625 9.15625 -3.042969 8.953125 -3.042969 Z M 4.269531 -3.042969 "/></g></g></g><g fill="#d9d9d9" fill-opacity="1"><g transform="translate(407.910084, 278.663965)"><g><path d="M 7.476562 -17.480469 C 7.1875 -17.480469 7.046875 -17.25 7.046875 -16.984375 L 7.046875 -10.46875 L 4.269531 -10.46875 L 4.269531 -16.984375 C 4.269531 -17.289062 4.140625 -17.480469 3.851562 -17.480469 L 1.324219 -17.480469 C 1.046875 -17.480469 0.910156 -17.289062 0.910156 -16.984375 L 0.910156 -0.480469 C 0.910156 -0.175781 1.035156 0 1.324219 0 L 3.851562 0 C 4.140625 0 4.269531 -0.175781 4.269531 -0.480469 L 4.269531 -7.425781 L 7.046875 -7.425781 L 7.046875 -0.480469 C 7.046875 -0.175781 7.199219 0 7.476562 0 L 9.953125 0 C 10.28125 0 10.40625 -0.175781 10.40625 -0.480469 L 10.40625 -17 C 10.40625 -17.363281 10.203125 -17.480469 9.988281 -17.480469 Z M 7.476562 -17.480469 "/></g></g></g><g fill="#d9d9d9" fill-opacity="1"><g transform="translate(432.561537, 278.663965)"><g><path d="M 8.421875 -14.410156 C 8.636719 -14.410156 8.789062 -14.5625 8.789062 -14.863281 L 8.789062 -17.023438 C 8.789062 -17.328125 8.636719 -17.480469 8.421875 -17.480469 L 0.355469 -17.480469 C 0.140625 -17.480469 -0.0117188 -17.316406 -0.0117188 -17.011719 L -0.0117188 -14.863281 C -0.0117188 -14.5625 0.140625 -14.410156 0.355469 -14.410156 L 2.703125 -14.410156 L 2.703125 -0.441406 C 2.703125 -0.152344 2.855469 0 3.070312 0 L 5.707031 0 C 5.910156 0 6.074219 -0.152344 6.074219 -0.441406 L 6.074219 -14.410156 Z M 8.421875 -14.410156 "/></g></g></g><g fill="#d9d9d9" fill-opacity="1"><g transform="translate(454.649501, 278.663965)"><g><path d="M 4.269531 -3.042969 L 4.269531 -7.324219 L 7.957031 -7.324219 C 8.195312 -7.324219 8.359375 -7.453125 8.359375 -7.753906 L 8.359375 -9.914062 C 8.359375 -10.230469 8.171875 -10.355469 7.957031 -10.355469 L 4.269531 -10.355469 L 4.269531 -14.410156 L 8.890625 -14.410156 C 9.117188 -14.410156 9.246094 -14.5625 9.246094 -14.863281 L 9.246094 -17.011719 C 9.246094 -17.328125 9.117188 -17.480469 8.890625 -17.480469 L 1.339844 -17.480469 C 1.074219 -17.480469 0.910156 -17.289062 0.910156 -16.984375 L 0.910156 -0.480469 C 0.910156 -0.175781 1.046875 0 1.339844 0 L 8.953125 0 C 9.15625 0 9.320312 -0.140625 9.320312 -0.441406 L 9.320312 -2.613281 C 9.320312 -2.90625 9.15625 -3.042969 8.953125 -3.042969 Z M 4.269531 -3.042969 "/></g></g></g><g fill="#d9d9d9" fill-opacity="1"><g transform="translate(477.583538, 278.663965)"><g><path d="M 6.984375 -10.824219 C 6.984375 -9.964844 6.453125 -9.394531 5.441406 -9.394531 L 4.269531 -9.394531 L 4.269531 -14.410156 L 5.53125 -14.410156 C 6.402344 -14.410156 6.984375 -13.828125 6.984375 -12.917969 Z M 9.789062 -0.0117188 C 10.128906 -0.0117188 10.242188 -0.316406 10.242188 -0.542969 L 10.242188 -2.816406 C 10.242188 -5.34375 9.6875 -6.933594 8.550781 -7.894531 C 9.574219 -8.574219 10.355469 -9.609375 10.355469 -11.113281 L 10.355469 -12.917969 C 10.355469 -15.433594 8.398438 -17.480469 5.796875 -17.480469 L 1.339844 -17.480469 C 1.074219 -17.480469 0.910156 -17.289062 0.910156 -16.984375 L 0.910156 -0.46875 C 0.910156 -0.175781 1.035156 0 1.324219 0 L 3.851562 0 C 4.128906 0 4.269531 -0.175781 4.269531 -0.46875 L 4.269531 -6.792969 C 6 -6.679688 6.882812 -5.65625 6.882812 -3.21875 L 6.882812 -0.582031 C 6.882812 -0.203125 7.171875 -0.0117188 7.464844 -0.0117188 Z M 9.789062 -0.0117188 "/></g></g></g><path stroke-linecap="butt" transform="matrix(0.748648, 0, 0, 0.748614, 13.611264, 240.483265)" fill="none" stroke-linejoin="miter" d="M -0.00252382 1.499043 L 684.972014 1.499043 " stroke="#d9d9d9" stroke-width="3" stroke-opacity="1" stroke-miterlimit="4"/><path stroke-linecap="butt" transform="matrix(0.748648, 0, 0, 0.748614, 13.611264, 296.272761)" fill="none" stroke-linejoin="miter" d="M -0.00252382 1.498463 L 684.972014 1.498463 " stroke="#d9d9d9" stroke-width="3" stroke-opacity="1" stroke-miterlimit="4"/></svg>