<svg width="150" height="150" viewBox="0 0 150 150" fill="none" xmlns="http://www.w3.org/2000/svg">
<rect width="150" height="150" rx="16" fill="#BABABA" fill-opacity="0.2"/>
<path d="M6 14C6 11.7909 7.79086 10 10 10H140C142.209 10 144 11.7909 144 14V38C144 40.2091 142.209 42 140 42H10C7.79086 42 6 40.2091 6 38V14Z" fill="#D9D9D9"/>
<path d="M6 101C6 98.7909 7.79086 97 10 97H63C65.2091 97 67 98.7909 67 101V139C67 141.209 65.2091 143 63 143H10C7.79086 143 6 141.209 6 139V101Z" fill="#D9D9D9"/>
<path d="M72 101C72 98.7909 73.7909 97 76 97H136C138.209 97 140 98.7909 140 101V125C140 127.209 138.209 129 136 129H76C73.7909 129 72 127.209 72 125V101Z" fill="#D9D9D9"/>
<path d="M72 101C72 98.7909 73.7909 97 76 97H136C138.209 97 140 98.7909 140 101V139C140 141.209 138.209 143 136 143H76C73.7909 143 72 141.209 72 139V101Z" fill="#D9D9D9"/>
<rect x="6" y="44" width="56" height="49" rx="5" fill="#D9D9D9"/>
<line x1="67" y1="48.5" x2="140" y2="48.5" stroke="#CFB7B7"/>
<line x1="67" y1="56.5" x2="140" y2="56.5" stroke="#CFB7B7"/>
<line x1="67" y1="65.5" x2="140" y2="65.5" stroke="#CFB7B7"/>
<line x1="67" y1="74.5" x2="140" y2="74.5" stroke="#CFB7B7"/>
<line x1="67" y1="82.5" x2="140" y2="82.5" stroke="#CFB7B7"/>
<line x1="67" y1="90.5" x2="140" y2="90.5" stroke="#CFB7B7"/>
<line x1="76" y1="104.5" x2="135" y2="104.5" stroke="#CFB7B7"/>
<line x1="76" y1="109.5" x2="135" y2="109.5" stroke="#CFB7B7"/>
<line x1="76" y1="114.5" x2="135" y2="114.5" stroke="#CFB7B7"/>
<line x1="76" y1="119.5" x2="135" y2="119.5" stroke="#CFB7B7"/>
<line x1="76" y1="123.5" x2="135" y2="123.5" stroke="#CFB7B7"/>
<line x1="76" y1="128.5" x2="135" y2="128.5" stroke="#CFB7B7"/>
<line x1="76" y1="133.5" x2="135" y2="133.5" stroke="#CFB7B7"/>
<line x1="76" y1="138.5" x2="135" y2="138.5" stroke="#CFB7B7"/>
<line x1="10" y1="123.5" x2="62" y2="123.5" stroke="#CFB7B7"/>
<line x1="10" y1="128.5" x2="62" y2="128.5" stroke="#CFB7B7"/>
<line x1="10" y1="133.5" x2="62" y2="133.5" stroke="#CFB7B7"/>
<line x1="10" y1="138.5" x2="62" y2="138.5" stroke="#CFB7B7"/>
<path d="M15.0977 18.2031C15.5605 18.2031 15.9575 18.2222 16.2886 18.2603C16.6196 18.2983 16.8979 18.3555 17.1235 18.4316C17.3521 18.5049 17.5337 18.5972 17.6685 18.7085C17.8032 18.8198 17.9072 18.9473 17.9805 19.0908C18.0537 19.2314 18.1006 19.3896 18.1211 19.5654C18.1445 19.7412 18.1562 19.9316 18.1562 20.1367C18.1562 20.3418 18.1372 20.5352 18.0991 20.7168C18.064 20.8955 17.9995 21.0596 17.9058 21.209C17.812 21.3584 17.6846 21.4917 17.5234 21.6089C17.3623 21.7261 17.1572 21.8257 16.9082 21.9077C16.6592 21.9897 16.3589 22.0513 16.0073 22.0923C15.6587 22.1362 15.25 22.1582 14.7812 22.1582H13.6562C13.2344 22.1582 12.8652 22.1421 12.5488 22.1099C12.2324 22.0776 11.96 22.0293 11.7314 21.9648C11.5029 21.8975 11.314 21.814 11.1646 21.7144C11.0151 21.6118 10.895 21.4932 10.8042 21.3584C10.7163 21.2207 10.6548 21.0654 10.6196 20.8926C10.5845 20.7168 10.5669 20.5234 10.5669 20.3125H11.4106C11.4106 20.5762 11.4487 20.7827 11.5249 20.9321C11.6011 21.0815 11.7271 21.1943 11.9028 21.2705C12.0786 21.3438 12.3086 21.3906 12.5928 21.4111C12.8799 21.4287 13.2344 21.4375 13.6562 21.4375H14.7812C15.2734 21.4375 15.6821 21.4141 16.0073 21.3672C16.3325 21.3203 16.5918 21.2456 16.7852 21.1431C16.9785 21.0405 17.1147 20.9072 17.1938 20.7432C17.2729 20.5762 17.3125 20.374 17.3125 20.1367C17.3125 19.8994 17.2847 19.7017 17.229 19.5435C17.1763 19.3853 17.0693 19.2593 16.9082 19.1655C16.75 19.0718 16.5259 19.0059 16.2358 18.9678C15.9458 18.9268 15.5664 18.9062 15.0977 18.9062H13.9375C13.4219 18.9062 12.9795 18.8872 12.6104 18.8491C12.2441 18.811 11.9365 18.7568 11.6875 18.6865C11.4385 18.6133 11.2393 18.5239 11.0898 18.4185C10.9404 18.3101 10.8262 18.187 10.7471 18.0493C10.6709 17.9116 10.6211 17.7593 10.5977 17.5923C10.5742 17.4224 10.5625 17.2393 10.5625 17.043C10.5625 16.8379 10.5801 16.6475 10.6152 16.4717C10.6533 16.2959 10.7222 16.1377 10.8218 15.9971C10.9214 15.8535 11.0576 15.7261 11.2305 15.6147C11.4033 15.5034 11.6245 15.4111 11.894 15.3379C12.1665 15.2617 12.4932 15.2046 12.874 15.1665C13.2549 15.1284 13.7031 15.1094 14.2188 15.1094H15.0625C15.4844 15.1094 15.8535 15.1255 16.1699 15.1577C16.4863 15.187 16.7588 15.2354 16.9873 15.3027C17.2158 15.3672 17.4048 15.4492 17.5542 15.5488C17.7065 15.6455 17.8267 15.7627 17.9146 15.9004C18.0054 16.0352 18.0684 16.189 18.1035 16.3618C18.1387 16.5347 18.1562 16.7266 18.1562 16.9375H17.3125C17.3125 16.6738 17.2744 16.4673 17.1982 16.3179C17.1221 16.1685 16.9961 16.0571 16.8203 15.9839C16.6445 15.9077 16.4131 15.8608 16.126 15.8433C15.8389 15.8228 15.4844 15.8125 15.0625 15.8125H14.2188C13.6562 15.8125 13.1934 15.833 12.8301 15.874C12.4668 15.9121 12.1797 15.978 11.9688 16.0718C11.7578 16.1655 11.6113 16.2915 11.5293 16.4497C11.4473 16.6079 11.4062 16.8057 11.4062 17.043C11.4062 17.1895 11.4165 17.3198 11.437 17.4341C11.4575 17.5483 11.4985 17.6494 11.5601 17.7373C11.6245 17.8223 11.7139 17.894 11.8281 17.9526C11.9424 18.0112 12.0933 18.0596 12.2808 18.0977C12.4683 18.1357 12.6968 18.1636 12.9663 18.1812C13.2388 18.1958 13.5625 18.2031 13.9375 18.2031H15.0977ZM19.1406 19.4775C19.1406 19.126 19.1582 18.8154 19.1934 18.5459C19.2285 18.2764 19.29 18.042 19.3779 17.8428C19.4688 17.6436 19.5889 17.478 19.7383 17.3462C19.8906 17.2114 20.0811 17.103 20.3096 17.021C20.541 16.939 20.8149 16.8804 21.1313 16.8452C21.4478 16.8101 21.8169 16.7925 22.2388 16.7925C22.8013 16.7925 23.2642 16.8276 23.6274 16.8979C23.9907 16.9653 24.2778 17.0708 24.4888 17.2144C24.6997 17.355 24.8462 17.5352 24.9282 17.7549C25.0103 17.9717 25.0513 18.231 25.0513 18.5327H24.2075C24.2075 18.4243 24.2046 18.3232 24.1987 18.2295C24.1929 18.1357 24.1709 18.0508 24.1328 17.9746C24.0977 17.8984 24.0405 17.8311 23.9614 17.7725C23.8823 17.7109 23.7695 17.6597 23.623 17.6187C23.4766 17.5776 23.2905 17.5469 23.0649 17.5264C22.8423 17.5059 22.5669 17.4956 22.2388 17.4956C21.8638 17.4956 21.5474 17.5088 21.2896 17.5352C21.0347 17.5615 20.8237 17.6055 20.6567 17.667C20.4897 17.7256 20.3608 17.8062 20.27 17.9087C20.1792 18.0083 20.1133 18.1313 20.0723 18.2778C20.0312 18.4243 20.0063 18.5972 19.9976 18.7964C19.9917 18.9927 19.9888 19.2197 19.9888 19.4775C19.9888 19.7295 19.9917 19.9536 19.9976 20.1499C20.0063 20.3433 20.0312 20.5132 20.0723 20.6597C20.1133 20.8032 20.1792 20.9248 20.27 21.0244C20.3608 21.124 20.4897 21.2046 20.6567 21.2661C20.8237 21.3276 21.0347 21.3716 21.2896 21.3979C21.5474 21.4243 21.8638 21.4375 22.2388 21.4375C22.5669 21.4375 22.8423 21.4258 23.0649 21.4023C23.2905 21.3789 23.4766 21.3452 23.623 21.3013C23.7695 21.2573 23.8823 21.2031 23.9614 21.1387C24.0405 21.0742 24.0977 21.001 24.1328 20.9189C24.1709 20.834 24.1929 20.7417 24.1987 20.6421C24.2046 20.5396 24.2075 20.4297 24.2075 20.3125H25.0513C25.0513 20.6201 25.0103 20.8867 24.9282 21.1123C24.8462 21.3379 24.6997 21.5239 24.4888 21.6704C24.2778 21.814 23.9907 21.9209 23.6274 21.9912C23.2642 22.0615 22.8013 22.0967 22.2388 22.0967C21.8169 22.0967 21.4478 22.0791 21.1313 22.0439C20.8149 22.0088 20.541 21.9517 20.3096 21.8726C20.0811 21.7905 19.8906 21.6836 19.7383 21.5518C19.5889 21.4199 19.4688 21.2573 19.3779 21.064C19.29 20.8706 19.2285 20.6436 19.1934 20.3828C19.1582 20.1191 19.1406 19.8174 19.1406 19.4775ZM30.54 18.5854C30.54 18.3745 30.5239 18.2002 30.4917 18.0625C30.4624 17.9219 30.3906 17.8105 30.2764 17.7285C30.1621 17.6436 29.9922 17.585 29.7666 17.5527C29.5439 17.5176 29.2393 17.5 28.8525 17.5C28.4746 17.5 28.167 17.5337 27.9297 17.6011C27.6924 17.6655 27.5063 17.7578 27.3716 17.8779C27.2368 17.998 27.1445 18.1416 27.0947 18.3086C27.0479 18.4756 27.0244 18.6616 27.0244 18.8667V22H26.1807V16.9375H27.0244V17.7417C27.0537 17.6509 27.1079 17.5513 27.187 17.4429C27.2661 17.3315 27.3862 17.229 27.5474 17.1353C27.7085 17.0386 27.9165 16.958 28.1714 16.8936C28.4292 16.8291 28.75 16.7969 29.1338 16.7969C29.5732 16.7969 29.9307 16.8364 30.2061 16.9155C30.4814 16.9917 30.6953 17.106 30.8477 17.2583C31.0029 17.4077 31.1069 17.5938 31.1597 17.8164C31.2153 18.0391 31.2432 18.2954 31.2432 18.5854H30.54ZM34.7588 22.0967C34.1963 22.0967 33.7188 22.0586 33.3262 21.9824C32.9336 21.9033 32.6143 21.7686 32.3682 21.5781C32.1221 21.3877 31.9434 21.1328 31.832 20.8135C31.7207 20.4941 31.665 20.0928 31.665 19.6094C31.665 19.0557 31.7207 18.5986 31.832 18.2383C31.9434 17.875 32.1221 17.5864 32.3682 17.3726C32.6143 17.1587 32.9336 17.0093 33.3262 16.9243C33.7188 16.8394 34.1963 16.7969 34.7588 16.7969C35.1602 16.7969 35.5073 16.8262 35.8003 16.8848C36.0962 16.9434 36.3481 17.0283 36.5562 17.1396C36.7671 17.251 36.937 17.3857 37.0659 17.5439C37.1978 17.7021 37.3003 17.8691 37.3735 18.0449C37.4497 18.2178 37.501 18.4214 37.5273 18.6558C37.5566 18.8901 37.5713 19.1377 37.5713 19.3984L37.501 19.6797H32.5088C32.5088 20.0664 32.5469 20.3843 32.623 20.6333C32.6992 20.8794 32.8252 21.0596 33.001 21.1738C33.1768 21.2881 33.4082 21.3613 33.6953 21.3936C33.9824 21.4229 34.3369 21.4375 34.7588 21.4375C35.1455 21.4375 35.4648 21.4272 35.7168 21.4067C35.9717 21.3833 36.1738 21.3408 36.3232 21.2793C36.4727 21.2178 36.5767 21.1328 36.6353 21.0244C36.6968 20.9131 36.7275 20.7695 36.7275 20.5938H37.5713C37.5713 20.8662 37.5229 21.0991 37.4263 21.2925C37.3325 21.4829 37.1758 21.6382 36.9561 21.7583C36.7363 21.8755 36.4463 21.9604 36.0859 22.0132C35.7285 22.0688 35.2861 22.0967 34.7588 22.0967ZM34.7588 17.5C34.4775 17.5 34.2256 17.5059 34.0029 17.5176C33.7832 17.5293 33.5898 17.5557 33.4229 17.5967C33.2588 17.6348 33.1182 17.6919 33.001 17.7681C32.8838 17.8413 32.7886 17.9292 32.7153 18.0317C32.645 18.1313 32.5923 18.2734 32.5571 18.458C32.5249 18.6396 32.5088 18.8594 32.5088 19.1172H36.7275C36.7275 18.7744 36.6909 18.5063 36.6177 18.313C36.5444 18.1167 36.4287 17.9556 36.2705 17.8296C36.1123 17.7036 35.9087 17.6172 35.6597 17.5703C35.4106 17.5234 35.1104 17.5 34.7588 17.5ZM41.6494 22.0967C41.0869 22.0967 40.6094 22.0586 40.2168 21.9824C39.8242 21.9033 39.5049 21.7686 39.2588 21.5781C39.0127 21.3877 38.834 21.1328 38.7227 20.8135C38.6113 20.4941 38.5557 20.0928 38.5557 19.6094C38.5557 19.0557 38.6113 18.5986 38.7227 18.2383C38.834 17.875 39.0127 17.5864 39.2588 17.3726C39.5049 17.1587 39.8242 17.0093 40.2168 16.9243C40.6094 16.8394 41.0869 16.7969 41.6494 16.7969C42.0508 16.7969 42.3979 16.8262 42.6909 16.8848C42.9868 16.9434 43.2388 17.0283 43.4468 17.1396C43.6577 17.251 43.8276 17.3857 43.9565 17.5439C44.0884 17.7021 44.1909 17.8691 44.2642 18.0449C44.3403 18.2178 44.3916 18.4214 44.418 18.6558C44.4473 18.8901 44.4619 19.1377 44.4619 19.3984L44.3916 19.6797H39.3994C39.3994 20.0664 39.4375 20.3843 39.5137 20.6333C39.5898 20.8794 39.7158 21.0596 39.8916 21.1738C40.0674 21.2881 40.2988 21.3613 40.5859 21.3936C40.873 21.4229 41.2275 21.4375 41.6494 21.4375C42.0361 21.4375 42.3555 21.4272 42.6074 21.4067C42.8623 21.3833 43.0645 21.3408 43.2139 21.2793C43.3633 21.2178 43.4673 21.1328 43.5259 21.0244C43.5874 20.9131 43.6182 20.7695 43.6182 20.5938H44.4619C44.4619 20.8662 44.4136 21.0991 44.3169 21.2925C44.2231 21.4829 44.0664 21.6382 43.8467 21.7583C43.627 21.8755 43.3369 21.9604 42.9766 22.0132C42.6191 22.0688 42.1768 22.0967 41.6494 22.0967ZM41.6494 17.5C41.3682 17.5 41.1162 17.5059 40.8936 17.5176C40.6738 17.5293 40.4805 17.5557 40.3135 17.5967C40.1494 17.6348 40.0088 17.6919 39.8916 17.7681C39.7744 17.8413 39.6792 17.9292 39.606 18.0317C39.5356 18.1313 39.4829 18.2734 39.4478 18.458C39.4155 18.6396 39.3994 18.8594 39.3994 19.1172H43.6182C43.6182 18.7744 43.5815 18.5063 43.5083 18.313C43.4351 18.1167 43.3193 17.9556 43.1611 17.8296C43.0029 17.7036 42.7993 17.6172 42.5503 17.5703C42.3013 17.5234 42.001 17.5 41.6494 17.5ZM50.6494 22V19.1875C50.6494 18.874 50.626 18.6104 50.5791 18.3965C50.5322 18.1797 50.4385 18.0054 50.2979 17.8735C50.1572 17.7417 49.958 17.6465 49.7002 17.5879C49.4424 17.5293 49.1025 17.5 48.6807 17.5C48.2236 17.5 47.8486 17.5337 47.5557 17.6011C47.2656 17.6685 47.0371 17.7637 46.8701 17.8867C46.7031 18.0098 46.5874 18.1577 46.5229 18.3306C46.4614 18.5034 46.4307 18.6953 46.4307 18.9062V22H45.5869V16.9375H46.4307V17.7812C46.4922 17.6377 46.5801 17.5146 46.6943 17.4121C46.8086 17.3066 46.9375 17.2173 47.0811 17.144C47.2246 17.0708 47.3799 17.0122 47.5469 16.9683C47.7139 16.9214 47.8809 16.8862 48.0479 16.8628C48.2148 16.8364 48.376 16.8188 48.5312 16.8101C48.6895 16.8013 48.833 16.7969 48.9619 16.7969C49.3369 16.7969 49.6592 16.8203 49.9287 16.8672C50.2012 16.9141 50.4312 16.9829 50.6187 17.0737C50.8091 17.1646 50.9614 17.2773 51.0757 17.4121C51.1899 17.5469 51.2778 17.7036 51.3394 17.8823C51.4038 18.0581 51.4463 18.2559 51.4668 18.4756C51.4873 18.6924 51.4976 18.9297 51.4976 19.1875L51.4932 22H50.6494ZM59.1309 18.2031C59.5938 18.2031 59.9907 18.2222 60.3218 18.2603C60.6528 18.2983 60.9312 18.3555 61.1567 18.4316C61.3853 18.5049 61.5669 18.5972 61.7017 18.7085C61.8364 18.8198 61.9404 18.9473 62.0137 19.0908C62.0869 19.2314 62.1338 19.3896 62.1543 19.5654C62.1777 19.7412 62.1895 19.9316 62.1895 20.1367C62.1895 20.3418 62.1704 20.5352 62.1323 20.7168C62.0972 20.8955 62.0327 21.0596 61.939 21.209C61.8452 21.3584 61.7178 21.4917 61.5566 21.6089C61.3955 21.7261 61.1904 21.8257 60.9414 21.9077C60.6924 21.9897 60.3921 22.0513 60.0405 22.0923C59.6919 22.1362 59.2832 22.1582 58.8145 22.1582H57.6895C57.2676 22.1582 56.8984 22.1421 56.582 22.1099C56.2656 22.0776 55.9932 22.0293 55.7646 21.9648C55.5361 21.8975 55.3472 21.814 55.1978 21.7144C55.0483 21.6118 54.9282 21.4932 54.8374 21.3584C54.7495 21.2207 54.688 21.0654 54.6528 20.8926C54.6177 20.7168 54.6001 20.5234 54.6001 20.3125H55.4438C55.4438 20.5762 55.4819 20.7827 55.5581 20.9321C55.6343 21.0815 55.7603 21.1943 55.936 21.2705C56.1118 21.3438 56.3418 21.3906 56.626 21.4111C56.9131 21.4287 57.2676 21.4375 57.6895 21.4375H58.8145C59.3066 21.4375 59.7153 21.4141 60.0405 21.3672C60.3657 21.3203 60.625 21.2456 60.8184 21.1431C61.0117 21.0405 61.1479 20.9072 61.2271 20.7432C61.3062 20.5762 61.3457 20.374 61.3457 20.1367C61.3457 19.8994 61.3179 19.7017 61.2622 19.5435C61.2095 19.3853 61.1025 19.2593 60.9414 19.1655C60.7832 19.0718 60.5591 19.0059 60.269 18.9678C59.979 18.9268 59.5996 18.9062 59.1309 18.9062H57.9707C57.4551 18.9062 57.0127 18.8872 56.6436 18.8491C56.2773 18.811 55.9697 18.7568 55.7207 18.6865C55.4717 18.6133 55.2725 18.5239 55.123 18.4185C54.9736 18.3101 54.8594 18.187 54.7803 18.0493C54.7041 17.9116 54.6543 17.7593 54.6309 17.5923C54.6074 17.4224 54.5957 17.2393 54.5957 17.043C54.5957 16.8379 54.6133 16.6475 54.6484 16.4717C54.6865 16.2959 54.7554 16.1377 54.855 15.9971C54.9546 15.8535 55.0908 15.7261 55.2637 15.6147C55.4365 15.5034 55.6577 15.4111 55.9272 15.3379C56.1997 15.2617 56.5264 15.2046 56.9072 15.1665C57.2881 15.1284 57.7363 15.1094 58.252 15.1094H59.0957C59.5176 15.1094 59.8867 15.1255 60.2031 15.1577C60.5195 15.187 60.792 15.2354 61.0205 15.3027C61.249 15.3672 61.438 15.4492 61.5874 15.5488C61.7397 15.6455 61.8599 15.7627 61.9478 15.9004C62.0386 16.0352 62.1016 16.189 62.1367 16.3618C62.1719 16.5347 62.1895 16.7266 62.1895 16.9375H61.3457C61.3457 16.6738 61.3076 16.4673 61.2314 16.3179C61.1553 16.1685 61.0293 16.0571 60.8535 15.9839C60.6777 15.9077 60.4463 15.8608 60.1592 15.8433C59.8721 15.8228 59.5176 15.8125 59.0957 15.8125H58.252C57.6895 15.8125 57.2266 15.833 56.8633 15.874C56.5 15.9121 56.2129 15.978 56.002 16.0718C55.791 16.1655 55.6445 16.2915 55.5625 16.4497C55.4805 16.6079 55.4395 16.8057 55.4395 17.043C55.4395 17.1895 55.4497 17.3198 55.4702 17.4341C55.4907 17.5483 55.5317 17.6494 55.5933 17.7373C55.6577 17.8223 55.7471 17.894 55.8613 17.9526C55.9756 18.0112 56.1265 18.0596 56.314 18.0977C56.5015 18.1357 56.73 18.1636 56.9995 18.1812C57.272 18.1958 57.5957 18.2031 57.9707 18.2031H59.1309ZM68.377 22V19.1436C68.377 18.8389 68.3535 18.5825 68.3066 18.3745C68.2598 18.1636 68.166 17.9937 68.0254 17.8647C67.8848 17.7358 67.6855 17.6436 67.4277 17.5879C67.1699 17.5293 66.8301 17.5 66.4082 17.5C65.9512 17.5 65.5762 17.5337 65.2832 17.6011C64.9932 17.6655 64.7646 17.7578 64.5977 17.8779C64.4307 17.9951 64.3149 18.1372 64.2505 18.3042C64.189 18.4712 64.1582 18.6572 64.1582 18.8623V22H63.3145V15.25H64.1582V17.7373C64.2168 17.5996 64.3003 17.481 64.4087 17.3813C64.5171 17.2817 64.6416 17.1968 64.7822 17.1265C64.9258 17.0562 65.0796 17.0005 65.2437 16.9595C65.4077 16.9155 65.5732 16.8818 65.7402 16.8584C65.9102 16.835 66.0757 16.8188 66.2368 16.8101C66.4009 16.8013 66.5518 16.7969 66.6895 16.7969C67.0645 16.7969 67.3867 16.8203 67.6562 16.8672C67.9287 16.9111 68.1587 16.9785 68.3462 17.0693C68.5366 17.1572 68.689 17.2671 68.8032 17.3989C68.9175 17.5308 69.0054 17.6846 69.0669 17.8604C69.1313 18.0332 69.1738 18.228 69.1943 18.4448C69.2148 18.6587 69.2251 18.8916 69.2251 19.1436L69.2207 22H68.377ZM70.2139 19.4336C70.2139 18.915 70.2695 18.4858 70.3809 18.146C70.4922 17.8062 70.6709 17.5366 70.917 17.3374C71.1631 17.1382 71.4824 16.999 71.875 16.9199C72.2676 16.8379 72.7451 16.7969 73.3076 16.7969C73.8701 16.7969 74.3477 16.8379 74.7402 16.9199C75.1328 16.999 75.4521 17.1382 75.6982 17.3374C75.9443 17.5366 76.123 17.8062 76.2344 18.146C76.3457 18.4858 76.4014 18.915 76.4014 19.4336C76.4014 19.9521 76.3457 20.3828 76.2344 20.7256C76.123 21.0684 75.9443 21.3408 75.6982 21.543C75.4521 21.7451 75.1328 21.8887 74.7402 21.9736C74.3477 22.0557 73.8701 22.0967 73.3076 22.0967C72.7451 22.0967 72.2676 22.0557 71.875 21.9736C71.4824 21.8887 71.1631 21.7451 70.917 21.543C70.6709 21.3408 70.4922 21.0684 70.3809 20.7256C70.2695 20.3828 70.2139 19.9521 70.2139 19.4336ZM71.0576 19.4336C71.0576 19.7148 71.0679 19.9595 71.0884 20.1675C71.1089 20.3755 71.147 20.5542 71.2026 20.7036C71.2612 20.853 71.3418 20.9746 71.4443 21.0684C71.5469 21.1621 71.6816 21.2368 71.8486 21.2925C72.0156 21.3481 72.2178 21.3862 72.4551 21.4067C72.6953 21.4272 72.9795 21.4375 73.3076 21.4375C73.5889 21.4375 73.8394 21.4316 74.0591 21.4199C74.2817 21.4053 74.4751 21.3745 74.6392 21.3276C74.8062 21.2808 74.9482 21.2148 75.0654 21.1299C75.1826 21.042 75.2764 20.9233 75.3467 20.7739C75.4199 20.6245 75.4727 20.4414 75.5049 20.2246C75.54 20.0049 75.5576 19.7412 75.5576 19.4336C75.5576 19.1318 75.54 18.8755 75.5049 18.6646C75.4727 18.4507 75.4199 18.272 75.3467 18.1284C75.2764 17.9849 75.1826 17.8721 75.0654 17.79C74.9482 17.7051 74.8062 17.6421 74.6392 17.6011C74.4751 17.5571 74.2817 17.5293 74.0591 17.5176C73.8394 17.5059 73.5889 17.5 73.3076 17.5C73.0264 17.5 72.7744 17.5059 72.5518 17.5176C72.332 17.5293 72.1387 17.5571 71.9717 17.6011C71.8076 17.6421 71.667 17.7051 71.5498 17.79C71.4326 17.8721 71.3374 17.9849 71.2642 18.1284C71.1938 18.272 71.1411 18.4507 71.106 18.6646C71.0737 18.8755 71.0576 19.1318 71.0576 19.4336ZM82.3076 19.75C82.3076 20.1807 82.2725 20.541 82.2021 20.8311C82.1318 21.1182 82.0132 21.3481 81.8462 21.521C81.6821 21.6938 81.4653 21.8169 81.1958 21.8901C80.9263 21.9634 80.5938 22 80.1982 22C79.8145 22 79.4922 21.9707 79.2314 21.9121C78.9707 21.8535 78.7598 21.7539 78.5986 21.6133C78.4375 21.4727 78.3218 21.2852 78.2515 21.0508C78.1812 20.8164 78.146 20.5234 78.146 20.1719V17.6318H77.1045V16.9375H78.146V15.5532H78.9897V16.9375H82.167V17.6318H78.9897V20.1719C78.9897 20.4531 79.0103 20.6699 79.0513 20.8223C79.0952 20.9746 79.1641 21.0859 79.2578 21.1562C79.3516 21.2266 79.4746 21.2676 79.627 21.2793C79.7822 21.291 79.9712 21.2969 80.1938 21.2969C80.3696 21.2969 80.5264 21.2939 80.6641 21.2881C80.8047 21.2822 80.9263 21.2646 81.0288 21.2354C81.1343 21.2031 81.2236 21.1562 81.2969 21.0947C81.3701 21.0303 81.4287 20.9409 81.4727 20.8267C81.5195 20.7124 81.5532 20.5688 81.5737 20.396C81.5942 20.2202 81.6045 20.0049 81.6045 19.75H82.3076ZM93.562 15.25V18.625C93.562 19.0234 93.5562 19.3867 93.5444 19.7148C93.5356 20.043 93.502 20.3374 93.4434 20.5981C93.3877 20.8589 93.2983 21.0859 93.1753 21.2793C93.0522 21.4727 92.8765 21.6338 92.6479 21.7627C92.4194 21.8887 92.1279 21.9824 91.7734 22.0439C91.4219 22.1084 90.9883 22.1406 90.4727 22.1406H88.4951C87.9795 22.1406 87.5444 22.1084 87.1899 22.0439C86.8384 21.9824 86.5483 21.8887 86.3198 21.7627C86.0913 21.6338 85.9141 21.4727 85.7881 21.2793C85.665 21.0859 85.5742 20.8589 85.5156 20.5981C85.46 20.3374 85.4277 20.043 85.4189 19.7148C85.4102 19.3867 85.4058 19.0234 85.4058 18.625V15.25H86.2495V18.625C86.2495 19.0469 86.2524 19.4102 86.2583 19.7148C86.2671 20.0166 86.292 20.2715 86.333 20.4795C86.374 20.6875 86.4385 20.8545 86.5264 20.9805C86.6172 21.1064 86.7461 21.2031 86.9131 21.2705C87.0801 21.3379 87.291 21.3833 87.5459 21.4067C87.8037 21.4272 88.1201 21.4375 88.4951 21.4375H90.4727C90.8447 21.4375 91.1597 21.4272 91.4175 21.4067C91.6753 21.3833 91.8862 21.3379 92.0503 21.2705C92.2173 21.2031 92.3462 21.1064 92.437 20.9805C92.5278 20.8545 92.5938 20.6875 92.6348 20.4795C92.6787 20.2715 92.7036 20.0166 92.7095 19.7148C92.7153 19.4102 92.7183 19.0469 92.7183 18.625L92.7139 15.25H93.562ZM102.707 22H101.863V20.7344C101.863 20.5293 101.859 20.3535 101.85 20.207C101.844 20.0576 101.819 19.9302 101.775 19.8247C101.734 19.7192 101.668 19.6343 101.578 19.5698C101.487 19.5054 101.358 19.4556 101.191 19.4204C101.024 19.3853 100.812 19.3618 100.554 19.3501C100.299 19.3354 99.9839 19.3281 99.6089 19.3281H95.8164V22H94.9727V15.25H99.7495C100.265 15.25 100.699 15.269 101.05 15.3071C101.405 15.3423 101.696 15.3965 101.925 15.4697C102.156 15.543 102.333 15.6338 102.457 15.7422C102.583 15.8506 102.673 15.978 102.729 16.1245C102.788 16.271 102.821 16.4351 102.83 16.6167C102.842 16.7983 102.848 16.999 102.848 17.2188C102.848 17.5 102.827 17.7476 102.786 17.9614C102.748 18.1724 102.682 18.3525 102.588 18.502C102.495 18.6514 102.37 18.7715 102.215 18.8623C102.06 18.9502 101.865 19.0117 101.63 19.0469C101.865 19.082 102.052 19.1436 102.193 19.2314C102.333 19.3193 102.442 19.4336 102.518 19.5742C102.594 19.7148 102.644 19.8818 102.667 20.0752C102.694 20.2686 102.707 20.4883 102.707 20.7344V22ZM95.8164 18.625H99.7495C100.125 18.625 100.439 18.6191 100.694 18.6074C100.952 18.5928 101.165 18.5679 101.332 18.5327C101.499 18.4976 101.627 18.4478 101.718 18.3833C101.809 18.3188 101.875 18.2339 101.916 18.1284C101.96 18.0229 101.985 17.897 101.991 17.7505C102 17.6011 102.004 17.4238 102.004 17.2188C102.004 17.0283 102 16.8643 101.991 16.7266C101.985 16.5889 101.96 16.4731 101.916 16.3794C101.875 16.2856 101.809 16.2109 101.718 16.1553C101.627 16.0996 101.499 16.0571 101.332 16.0278C101.165 15.9956 100.952 15.9751 100.694 15.9663C100.439 15.9575 100.125 15.9531 99.7495 15.9531H95.8164V18.625ZM104.254 22V15.25H105.098V21.2969H110.441V22H104.254ZM11.6875 28.8125V35H10.8438V28.25H12.25L16.1831 34.1562L20.1162 28.25H21.4609V35H20.6172V28.9048L16.6094 35H15.7568L11.6875 28.8125ZM23.1484 29.9375H23.9922V35H23.1484V29.9375ZM23.9922 29.0938H23.1484V28.25H23.9922V29.0938ZM28.3516 32.6929C28.6797 32.6929 28.9595 32.6987 29.1909 32.7104C29.4224 32.7192 29.6157 32.7368 29.771 32.7632C29.9292 32.7866 30.0537 32.8174 30.1445 32.8555C30.2354 32.8936 30.3042 32.9507 30.3511 33.0269C30.3979 33.1001 30.4272 33.1748 30.439 33.251C30.4536 33.3242 30.4609 33.4092 30.4609 33.5059C30.4609 33.6113 30.4536 33.708 30.439 33.7959C30.4272 33.8809 30.3965 33.9585 30.3467 34.0288C30.2969 34.0991 30.2236 34.1592 30.127 34.209C30.0303 34.2588 29.8984 34.3013 29.7314 34.3364C29.5645 34.3716 29.3564 34.3979 29.1074 34.4155C28.8613 34.4302 28.5625 34.4375 28.2109 34.4375C27.8242 34.4375 27.5034 34.4272 27.2485 34.4067C26.9966 34.3833 26.7959 34.3408 26.6465 34.2793C26.4971 34.2178 26.3916 34.1328 26.3301 34.0244C26.2715 33.9131 26.2422 33.7695 26.2422 33.5938H25.3984C25.3984 33.8604 25.4453 34.0859 25.5391 34.2705C25.6357 34.4551 25.7939 34.606 26.0137 34.7231C26.2334 34.8374 26.522 34.9209 26.8794 34.9736C27.2397 35.0264 27.6836 35.0527 28.2109 35.0527C28.6328 35.0527 29.002 35.0396 29.3184 35.0132C29.6377 34.9897 29.9116 34.9531 30.1401 34.9033C30.3687 34.8506 30.5576 34.7832 30.707 34.7012C30.8594 34.6162 30.9795 34.5166 31.0674 34.4023C31.1553 34.2852 31.2168 34.1519 31.252 34.0024C31.2871 33.8501 31.3047 33.6787 31.3047 33.4883C31.3047 33.2979 31.2871 33.1309 31.252 32.9873C31.2168 32.8408 31.1553 32.7148 31.0674 32.6094C30.9824 32.501 30.8682 32.4014 30.7246 32.3105C30.5811 32.2197 30.3994 32.1523 30.1797 32.1084C29.96 32.0645 29.6992 32.0337 29.3975 32.0161C29.0986 31.9985 28.75 31.9897 28.3516 31.9897C28.0234 31.9897 27.7437 31.9897 27.5122 31.9897C27.2808 31.9868 27.0859 31.978 26.9277 31.9634C26.7725 31.9458 26.6494 31.9209 26.5586 31.8887C26.4678 31.8564 26.3989 31.8096 26.3521 31.748C26.3052 31.6865 26.2744 31.6089 26.2598 31.5151C26.248 31.4185 26.2422 31.3203 26.2422 31.2207C26.2422 31.0508 26.2803 30.9175 26.3564 30.8208C26.4326 30.7241 26.5586 30.6523 26.7344 30.6055C26.9102 30.5586 27.1416 30.5293 27.4287 30.5176C27.7158 30.5059 28.0703 30.5 28.4922 30.5C28.8789 30.5 29.1982 30.5117 29.4502 30.5352C29.7051 30.5557 29.9072 30.5952 30.0566 30.6538C30.2061 30.7095 30.3101 30.7871 30.3687 30.8867C30.4302 30.9863 30.4609 31.1152 30.4609 31.2734H31.3047C31.3047 31.0186 31.2622 30.7988 31.1772 30.6143C31.0923 30.4297 30.9429 30.2773 30.729 30.1572C30.5181 30.0342 30.231 29.9434 29.8677 29.8848C29.5073 29.8262 29.0488 29.7969 28.4922 29.7969C27.9297 29.7969 27.4521 29.8218 27.0596 29.8716C26.667 29.9214 26.3477 30.0034 26.1016 30.1177C25.8555 30.229 25.6768 30.3755 25.5654 30.5571C25.4541 30.7358 25.3984 30.957 25.3984 31.2207C25.3984 31.4141 25.416 31.5942 25.4512 31.7612C25.4863 31.9253 25.5464 32.0645 25.6313 32.1787C25.7163 32.29 25.8306 32.3794 25.9741 32.4468C26.1206 32.5142 26.3022 32.5669 26.519 32.605C26.7388 32.6401 26.9995 32.6636 27.3013 32.6753C27.603 32.687 27.9531 32.6929 28.3516 32.6929ZM35.3828 32.6929C35.7109 32.6929 35.9907 32.6987 36.2222 32.7104C36.4536 32.7192 36.647 32.7368 36.8022 32.7632C36.9604 32.7866 37.085 32.8174 37.1758 32.8555C37.2666 32.8936 37.3354 32.9507 37.3823 33.0269C37.4292 33.1001 37.4585 33.1748 37.4702 33.251C37.4849 33.3242 37.4922 33.4092 37.4922 33.5059C37.4922 33.6113 37.4849 33.708 37.4702 33.7959C37.4585 33.8809 37.4277 33.9585 37.3779 34.0288C37.3281 34.0991 37.2549 34.1592 37.1582 34.209C37.0615 34.2588 36.9297 34.3013 36.7627 34.3364C36.5957 34.3716 36.3877 34.3979 36.1387 34.4155C35.8926 34.4302 35.5938 34.4375 35.2422 34.4375C34.8555 34.4375 34.5347 34.4272 34.2798 34.4067C34.0278 34.3833 33.8271 34.3408 33.6777 34.2793C33.5283 34.2178 33.4229 34.1328 33.3613 34.0244C33.3027 33.9131 33.2734 33.7695 33.2734 33.5938H32.4297C32.4297 33.8604 32.4766 34.0859 32.5703 34.2705C32.667 34.4551 32.8252 34.606 33.0449 34.7231C33.2646 34.8374 33.5532 34.9209 33.9106 34.9736C34.271 35.0264 34.7148 35.0527 35.2422 35.0527C35.6641 35.0527 36.0332 35.0396 36.3496 35.0132C36.6689 34.9897 36.9429 34.9531 37.1714 34.9033C37.3999 34.8506 37.5889 34.7832 37.7383 34.7012C37.8906 34.6162 38.0107 34.5166 38.0986 34.4023C38.1865 34.2852 38.248 34.1519 38.2832 34.0024C38.3184 33.8501 38.3359 33.6787 38.3359 33.4883C38.3359 33.2979 38.3184 33.1309 38.2832 32.9873C38.248 32.8408 38.1865 32.7148 38.0986 32.6094C38.0137 32.501 37.8994 32.4014 37.7559 32.3105C37.6123 32.2197 37.4307 32.1523 37.2109 32.1084C36.9912 32.0645 36.7305 32.0337 36.4287 32.0161C36.1299 31.9985 35.7812 31.9897 35.3828 31.9897C35.0547 31.9897 34.7749 31.9897 34.5435 31.9897C34.312 31.9868 34.1172 31.978 33.959 31.9634C33.8037 31.9458 33.6807 31.9209 33.5898 31.8887C33.499 31.8564 33.4302 31.8096 33.3833 31.748C33.3364 31.6865 33.3057 31.6089 33.291 31.5151C33.2793 31.4185 33.2734 31.3203 33.2734 31.2207C33.2734 31.0508 33.3115 30.9175 33.3877 30.8208C33.4639 30.7241 33.5898 30.6523 33.7656 30.6055C33.9414 30.5586 34.1729 30.5293 34.46 30.5176C34.7471 30.5059 35.1016 30.5 35.5234 30.5C35.9102 30.5 36.2295 30.5117 36.4814 30.5352C36.7363 30.5557 36.9385 30.5952 37.0879 30.6538C37.2373 30.7095 37.3413 30.7871 37.3999 30.8867C37.4614 30.9863 37.4922 31.1152 37.4922 31.2734H38.3359C38.3359 31.0186 38.2935 30.7988 38.2085 30.6143C38.1235 30.4297 37.9741 30.2773 37.7603 30.1572C37.5493 30.0342 37.2622 29.9434 36.8989 29.8848C36.5386 29.8262 36.0801 29.7969 35.5234 29.7969C34.9609 29.7969 34.4834 29.8218 34.0908 29.8716C33.6982 29.9214 33.3789 30.0034 33.1328 30.1177C32.8867 30.229 32.708 30.3755 32.5967 30.5571C32.4854 30.7358 32.4297 30.957 32.4297 31.2207C32.4297 31.4141 32.4473 31.5942 32.4824 31.7612C32.5176 31.9253 32.5776 32.0645 32.6626 32.1787C32.7476 32.29 32.8618 32.3794 33.0054 32.4468C33.1519 32.5142 33.3335 32.5669 33.5503 32.605C33.77 32.6401 34.0308 32.6636 34.3325 32.6753C34.6343 32.687 34.9844 32.6929 35.3828 32.6929ZM39.7422 29.9375H40.5859V35H39.7422V29.9375ZM40.5859 29.0938H39.7422V28.25H40.5859V29.0938ZM47.0547 35V32.1875C47.0547 31.874 47.0312 31.6104 46.9844 31.3965C46.9375 31.1797 46.8438 31.0054 46.7031 30.8735C46.5625 30.7417 46.3633 30.6465 46.1055 30.5879C45.8477 30.5293 45.5078 30.5 45.0859 30.5C44.6289 30.5 44.2539 30.5337 43.9609 30.6011C43.6709 30.6685 43.4424 30.7637 43.2754 30.8867C43.1084 31.0098 42.9927 31.1577 42.9282 31.3306C42.8667 31.5034 42.8359 31.6953 42.8359 31.9062V35H41.9922V29.9375H42.8359V30.7812C42.8975 30.6377 42.9854 30.5146 43.0996 30.4121C43.2139 30.3066 43.3428 30.2173 43.4863 30.144C43.6299 30.0708 43.7852 30.0122 43.9521 29.9683C44.1191 29.9214 44.2861 29.8862 44.4531 29.8628C44.6201 29.8364 44.7812 29.8188 44.9365 29.8101C45.0947 29.8013 45.2383 29.7969 45.3672 29.7969C45.7422 29.7969 46.0645 29.8203 46.334 29.8672C46.6064 29.9141 46.8364 29.9829 47.0239 30.0737C47.2144 30.1646 47.3667 30.2773 47.481 30.4121C47.5952 30.5469 47.6831 30.7036 47.7446 30.8823C47.8091 31.0581 47.8516 31.2559 47.8721 31.4756C47.8926 31.6924 47.9028 31.9297 47.9028 32.1875L47.8984 35H47.0547ZM51.9854 30.5C51.6572 30.5 51.373 30.5103 51.1328 30.5308C50.8955 30.5513 50.6934 30.5879 50.5264 30.6406C50.3594 30.6934 50.2231 30.7666 50.1177 30.8604C50.0151 30.9541 49.9346 31.0742 49.876 31.2207C49.8203 31.3672 49.7822 31.5444 49.7617 31.7524C49.7441 31.9575 49.7354 32.1992 49.7354 32.4775C49.7354 32.7529 49.7441 32.9932 49.7617 33.1982C49.7822 33.4004 49.8203 33.5747 49.876 33.7212C49.9346 33.8647 50.0151 33.9834 50.1177 34.0771C50.2231 34.1709 50.3594 34.2441 50.5264 34.2969C50.6934 34.3496 50.8955 34.3862 51.1328 34.4067C51.373 34.4272 51.6572 34.4375 51.9854 34.4375C52.2666 34.4375 52.5171 34.4316 52.7368 34.4199C52.9565 34.4053 53.1499 34.376 53.3169 34.332C53.4839 34.2852 53.6245 34.2192 53.7388 34.1343C53.856 34.0464 53.9512 33.9307 54.0244 33.7871C54.0977 33.6406 54.1504 33.4604 54.1826 33.2466C54.2178 33.0298 54.2354 32.769 54.2354 32.4644C54.2354 32.1597 54.2178 31.8989 54.1826 31.6821C54.1504 31.4653 54.0977 31.2852 54.0244 31.1416C53.9512 30.9951 53.856 30.8794 53.7388 30.7944C53.6245 30.7095 53.4839 30.645 53.3169 30.6011C53.1499 30.5571 52.9565 30.5293 52.7368 30.5176C52.5171 30.5059 52.2666 30.5 51.9854 30.5ZM55.0791 34.2969C55.0791 34.7891 55.0234 35.1978 54.9121 35.5229C54.8008 35.8481 54.6221 36.1104 54.376 36.3096C54.1299 36.5117 53.8105 36.6523 53.418 36.7314C53.0254 36.8105 52.5479 36.8501 51.9854 36.8501C51.458 36.8501 51.0142 36.8267 50.6538 36.7798C50.2964 36.7329 50.0078 36.6582 49.7881 36.5557C49.5684 36.4561 49.4102 36.3257 49.3135 36.1646C49.2197 36.0063 49.1729 35.813 49.1729 35.5845H50.0166C50.0166 35.6987 50.0459 35.7925 50.1045 35.8657C50.166 35.939 50.2715 35.9961 50.4209 36.0371C50.5703 36.0781 50.771 36.106 51.0229 36.1206C51.2778 36.1382 51.5986 36.147 51.9854 36.147C52.4072 36.147 52.7617 36.1309 53.0488 36.0986C53.3359 36.0693 53.5674 35.9976 53.7432 35.8833C53.9189 35.769 54.0449 35.5962 54.1211 35.3647C54.1973 35.1333 54.2354 34.8242 54.2354 34.4375C54.1943 34.5078 54.1284 34.584 54.0376 34.666C53.9497 34.748 53.8193 34.8242 53.6465 34.8945C53.4766 34.9648 53.2568 35.0234 52.9873 35.0703C52.7178 35.1172 52.3838 35.1406 51.9854 35.1406C51.4229 35.1406 50.9453 35.0981 50.5527 35.0132C50.1602 34.9312 49.8408 34.7891 49.5947 34.5869C49.3486 34.3848 49.1699 34.1123 49.0586 33.7695C48.9473 33.4268 48.8916 32.9961 48.8916 32.4775C48.8916 31.9502 48.9473 31.5137 49.0586 31.168C49.1699 30.8223 49.3486 30.5483 49.5947 30.3462C49.8408 30.144 50.1602 30.002 50.5527 29.9199C50.9453 29.8379 51.4229 29.7969 51.9854 29.7969C52.3838 29.7969 52.7178 29.8174 52.9873 29.8584C53.2568 29.8994 53.4766 29.9507 53.6465 30.0122C53.8193 30.0737 53.9497 30.1411 54.0376 30.2144C54.1284 30.2847 54.1943 30.3491 54.2354 30.4077V29.9375H55.0791V34.2969Z" fill="#CFB7B7"/>
<rect x="10.5" y="99.5" width="51" height="21" rx="4.5" fill="#D9D9D9" stroke="#CFB7B7"/>
<rect x="8.5" y="46.5" width="51" height="44" rx="4.5" fill="#D9D9D9" stroke="#CFB7B7"/>
</svg>
