<svg xmlns="http://www.w3.org/2000/svg" xmlns:xlink="http://www.w3.org/1999/xlink" width="172" zoomAndPan="magnify" viewBox="0 0 129 143.999998" height="192" preserveAspectRatio="xMidYMid meet" version="1.0"><defs><clipPath id="4cc97a2e4b"><path d="M 21.359375 28.3125 L 107.609375 28.3125 L 107.609375 115.3125 L 21.359375 115.3125 Z M 21.359375 28.3125 " clip-rule="nonzero"/></clipPath></defs><g clip-path="url(#4cc97a2e4b)"><path fill="#ff0000" d="M 62.484375 28.320312 C 57.835938 28.316406 53.214844 29.046875 48.8125 30.480469 C 48.769531 30.496094 48.726562 30.519531 48.691406 30.550781 C 48.652344 30.582031 48.625 30.617188 48.601562 30.660156 C 48.582031 30.703125 48.570312 30.75 48.566406 30.796875 C 48.5625 30.84375 48.566406 30.890625 48.582031 30.933594 C 48.597656 30.980469 48.621094 31.019531 48.648438 31.058594 C 48.679688 31.09375 48.71875 31.121094 48.761719 31.144531 C 48.804688 31.164062 48.847656 31.179688 48.894531 31.183594 C 48.945312 31.1875 48.992188 31.179688 49.035156 31.164062 C 53.367188 29.753906 57.910156 29.035156 62.484375 29.039062 C 64.417969 29.039062 66.265625 29.335938 68.125 29.582031 C 66.4375 29.386719 64.753906 29.179688 63.050781 29.183594 C 62.832031 29.183594 62.628906 29.242188 62.410156 29.246094 C 62.40625 29.246094 62.402344 29.242188 62.398438 29.242188 C 59.84375 29.246094 57.324219 29.542969 54.835938 29.980469 C 54.699219 30.007812 54.5625 30.042969 54.425781 30.070312 C 48.960938 31.082031 43.714844 33.042969 39.046875 36.023438 C 38.96875 36.078125 38.910156 36.15625 38.890625 36.25 C 38.871094 36.34375 38.890625 36.441406 38.941406 36.519531 C 38.980469 36.535156 39.023438 36.546875 39.066406 36.546875 C 28.433594 43.738281 21.441406 55.507812 21.433594 68.875 C 21.433594 68.960938 21.460938 69.042969 21.460938 69.128906 C 21.453125 69.453125 21.359375 69.75 21.359375 70.074219 C 21.355469 77.257812 23.417969 84.296875 27.304688 90.460938 C 29.875 96.066406 33.683594 100.890625 38.40625 104.703125 C 45.917969 111.242188 55.808594 115.242188 66.574219 115.238281 C 66.671875 115.238281 66.765625 115.214844 66.863281 115.214844 C 67.183594 115.222656 67.480469 115.304688 67.804688 115.304688 C 85.671875 115.289062 101.550781 104.40625 107.191406 88.21875 C 107.207031 88.171875 107.214844 88.125 107.210938 88.078125 C 107.210938 88.03125 107.199219 87.984375 107.175781 87.945312 C 107.15625 87.902344 107.128906 87.863281 107.09375 87.832031 C 107.058594 87.800781 107.015625 87.777344 106.972656 87.761719 C 106.925781 87.746094 106.878906 87.738281 106.832031 87.742188 C 106.785156 87.742188 106.738281 87.753906 106.695312 87.777344 C 106.652344 87.796875 106.613281 87.824219 106.582031 87.859375 C 106.550781 87.894531 106.527344 87.9375 106.511719 87.980469 C 103.984375 95.226562 99.300781 101.316406 93.355469 105.882812 C 100.09375 100.492188 105.09375 93.121094 107.140625 84.492188 C 107.152344 84.449219 107.152344 84.398438 107.148438 84.351562 C 107.140625 84.308594 107.121094 84.261719 107.097656 84.222656 C 107.074219 84.183594 107.039062 84.148438 107 84.121094 C 106.960938 84.09375 106.917969 84.074219 106.875 84.0625 C 106.78125 84.039062 106.683594 84.054688 106.601562 84.105469 C 106.519531 84.15625 106.460938 84.234375 106.441406 84.328125 C 102.269531 101.878906 85.863281 114.363281 66.859375 114.5 C 64.226562 114.441406 61.644531 114.195312 59.15625 113.6875 C 61.085938 113.953125 63.039062 114.128906 65.027344 114.128906 C 83.351562 114.144531 99.550781 102.691406 104.890625 85.929688 C 104.917969 85.839844 104.910156 85.742188 104.867188 85.65625 C 104.824219 85.574219 104.746094 85.507812 104.65625 85.480469 C 104.605469 85.472656 104.550781 85.480469 104.503906 85.496094 C 105.203125 83.84375 105.769531 82.140625 106.230469 80.402344 C 106.382812 79.855469 106.449219 79.28125 106.578125 78.722656 C 106.871094 77.371094 107.105469 76.011719 107.246094 74.621094 C 107.335938 73.871094 107.5625 73.160156 107.609375 72.394531 C 107.613281 72.328125 107.597656 72.257812 107.5625 72.199219 C 107.527344 72.136719 107.476562 72.089844 107.414062 72.058594 C 107.425781 71.597656 107.503906 71.152344 107.503906 70.6875 C 107.449219 58.820312 101.742188 48.277344 92.929688 41.023438 C 85.324219 33.261719 74.550781 28.332031 62.484375 28.324219 Z M 70.214844 29.78125 C 70.929688 29.910156 71.605469 30.125 72.308594 30.292969 C 71.605469 30.140625 70.925781 29.898438 70.214844 29.78125 Z M 62.410156 29.960938 C 62.792969 29.960938 63.144531 30.058594 63.519531 30.066406 C 61.59375 30.253906 59.679688 30.445312 57.839844 30.871094 C 45.941406 32.367188 35.609375 38.4375 29.023438 47.308594 C 34.847656 38.988281 43.9375 32.921875 54.558594 30.773438 C 54.699219 30.746094 54.839844 30.707031 54.980469 30.683594 C 57.382812 30.222656 59.875 30.003906 62.410156 29.960938 Z M 67.042969 30.398438 C 70.417969 30.761719 73.671875 31.4375 76.742188 32.53125 C 73.1875 31.402344 69.480469 30.746094 65.6875 30.546875 C 66.148438 30.527344 66.578125 30.40625 67.042969 30.398438 Z M 63.296875 31.058594 C 64.429688 31.058594 65.53125 31.265625 66.652344 31.351562 C 66.609375 31.367188 66.566406 31.394531 66.53125 31.425781 C 66.496094 31.460938 66.464844 31.5 66.445312 31.546875 C 66.445312 31.640625 66.480469 31.734375 66.542969 31.800781 C 66.609375 31.871094 66.699219 31.910156 66.792969 31.914062 C 71.519531 32.039062 75.972656 33.058594 80.164062 34.566406 C 84.148438 36.242188 87.917969 38.394531 91.203125 41.203125 C 91.207031 41.203125 91.210938 41.203125 91.214844 41.207031 C 94.257812 44.070312 96.683594 47.464844 98.65625 51.117188 C 91.089844 41.039062 78.734375 34.417969 64.726562 34.441406 C 57.367188 34.453125 50.140625 36.328125 43.796875 39.867188 C 43.714844 39.914062 43.652344 39.992188 43.628906 40.085938 C 43.601562 40.175781 43.617188 40.273438 43.660156 40.355469 C 43.707031 40.4375 43.785156 40.5 43.878906 40.523438 C 43.96875 40.550781 44.066406 40.539062 44.152344 40.492188 C 50.386719 37.011719 57.488281 35.171875 64.726562 35.160156 C 80.488281 35.132812 94.019531 43.675781 100.878906 56.054688 C 102.332031 60.039062 103.28125 64.253906 103.273438 68.707031 C 103.273438 71.410156 102.835938 74.046875 102.253906 76.640625 C 102.097656 77.269531 102.003906 77.917969 101.816406 78.539062 C 101.277344 80.457031 100.472656 82.28125 99.632812 84.089844 C 95.652344 92.234375 88.734375 98.988281 79.8125 102.917969 C 79.769531 102.9375 79.730469 102.964844 79.695312 103 C 79.664062 103.035156 79.636719 103.074219 79.621094 103.117188 C 79.605469 103.164062 79.597656 103.210938 79.597656 103.257812 C 79.597656 103.304688 79.609375 103.351562 79.628906 103.394531 C 79.648438 103.4375 79.675781 103.476562 79.710938 103.507812 C 79.742188 103.539062 79.785156 103.566406 79.828125 103.582031 C 79.871094 103.601562 79.917969 103.609375 79.96875 103.605469 C 80.015625 103.605469 80.0625 103.59375 80.105469 103.578125 C 82.273438 102.621094 84.285156 101.453125 86.210938 100.1875 C 86.195312 100.28125 86.21875 100.375 86.269531 100.453125 C 86.324219 100.53125 86.40625 100.585938 86.5 100.601562 C 86.59375 100.621094 86.691406 100.597656 86.769531 100.546875 C 92.851562 96.386719 97.339844 90.734375 100.277344 84.402344 C 101.171875 82.578125 101.914062 80.679688 102.507812 78.730469 C 102.6875 78.085938 102.8125 77.4375 102.957031 76.78125 C 103.671875 73.890625 104.148438 70.921875 104.152344 67.871094 C 104.152344 65.886719 103.839844 63.984375 103.542969 62.082031 C 104.828125 65.835938 105.707031 69.765625 105.71875 73.921875 C 105.730469 76.957031 105.257812 79.945312 104.527344 82.882812 C 103.351562 86.109375 101.820312 89.15625 99.855469 91.933594 C 99.132812 92.96875 98.304688 93.933594 97.476562 94.898438 C 89.953125 103.59375 78.707031 109.207031 66.066406 109.234375 C 56.800781 109.253906 48.359375 106.210938 41.519531 101.269531 C 41.585938 101.300781 41.65625 101.308594 41.726562 101.296875 C 41.800781 101.289062 41.867188 101.257812 41.917969 101.207031 C 41.972656 101.132812 41.996094 101.035156 41.984375 100.941406 C 41.96875 100.847656 41.917969 100.761719 41.839844 100.707031 C 34.582031 95.363281 29.59375 87.902344 27.328125 79.640625 C 27.289062 79.285156 27.242188 78.929688 27.214844 78.570312 C 29.304688 86.761719 34.042969 94.222656 40.992188 99.726562 C 41.066406 99.785156 41.160156 99.8125 41.253906 99.800781 C 41.351562 99.792969 41.4375 99.742188 41.496094 99.667969 C 41.554688 99.59375 41.582031 99.5 41.570312 99.40625 C 41.558594 99.3125 41.511719 99.226562 41.4375 99.167969 C 33.203125 92.644531 28.285156 83.332031 27.167969 73.332031 C 27.453125 69.117188 28.296875 64.945312 29.996094 61.027344 C 30.015625 60.984375 30.027344 60.9375 30.027344 60.890625 C 30.027344 60.84375 30.019531 60.796875 30 60.753906 C 29.984375 60.707031 29.957031 60.667969 29.925781 60.636719 C 29.890625 60.601562 29.851562 60.574219 29.808594 60.554688 C 29.765625 60.539062 29.71875 60.527344 29.671875 60.527344 C 29.625 60.527344 29.578125 60.535156 29.53125 60.550781 C 29.488281 60.570312 29.449219 60.59375 29.414062 60.628906 C 29.378906 60.660156 29.355469 60.699219 29.335938 60.742188 C 28.039062 63.730469 27.285156 66.867188 26.792969 70.050781 C 26.785156 69.777344 26.699219 69.519531 26.699219 69.246094 C 26.707031 58.816406 31.082031 49.363281 38.15625 42.375 C 38.632812 41.929688 39.125 41.503906 39.628906 41.078125 C 40.582031 40.222656 41.609375 39.445312 42.648438 38.679688 C 48.285156 34.773438 54.988281 32.152344 62.382812 31.460938 C 62.46875 31.453125 62.546875 31.410156 62.605469 31.347656 C 62.664062 31.285156 62.699219 31.203125 62.703125 31.117188 C 62.90625 31.113281 63.09375 31.058594 63.300781 31.058594 Z M 76.976562 31.664062 C 80.628906 32.980469 83.984375 34.773438 87.050781 36.964844 C 86.941406 36.902344 86.828125 36.847656 86.71875 36.789062 C 83.734375 34.738281 80.457031 33.09375 76.945312 31.847656 C 76.953125 31.839844 76.960938 31.832031 76.96875 31.820312 C 76.988281 31.769531 76.992188 31.71875 76.984375 31.664062 Z M 50.75 33.113281 C 47.671875 34.414062 44.878906 36.148438 42.25 38.082031 C 41.148438 38.847656 40.144531 39.703125 39.125 40.566406 C 38.636719 41.003906 38.113281 41.40625 37.644531 41.871094 C 29.976562 49.046875 25.167969 58.945312 25.1875 69.921875 C 25.1875 70.34375 25.328125 70.742188 25.34375 71.164062 C 25.3125 71.109375 25.269531 71.058594 25.21875 71.023438 C 25.164062 70.988281 25.101562 70.96875 25.039062 70.964844 C 24.992188 70.964844 24.945312 70.976562 24.902344 70.992188 C 24.859375 71.011719 24.820312 71.039062 24.785156 71.074219 C 24.753906 71.109375 24.726562 71.148438 24.710938 71.191406 C 24.691406 71.234375 24.683594 71.28125 24.6875 71.328125 C 24.75 75.441406 25.660156 79.320312 26.957031 83.03125 C 27.464844 85.625 28.234375 88.125 29.25 90.515625 C 28.769531 89.832031 28.351562 89.117188 27.917969 88.40625 C 27.378906 86.949219 26.808594 85.503906 26.449219 83.964844 C 26.425781 83.871094 26.367188 83.792969 26.289062 83.742188 C 26.207031 83.691406 26.109375 83.675781 26.015625 83.695312 C 25.925781 83.71875 25.84375 83.773438 25.792969 83.855469 C 25.742188 83.9375 25.726562 84.03125 25.746094 84.125 C 25.886719 84.734375 26.15625 85.285156 26.328125 85.878906 C 23.691406 80.710938 22.21875 75.015625 22.183594 69.128906 C 22.628906 52.191406 34.464844 38.082031 50.75 33.113281 Z M 97.4375 46.429688 C 103.160156 53.101562 106.742188 61.476562 106.78125 70.695312 C 106.78125 72.003906 106.660156 73.292969 106.527344 74.578125 C 106.40625 75.566406 106.246094 76.539062 106.050781 77.503906 C 106.164062 76.308594 106.4375 75.128906 106.433594 73.921875 C 106.421875 68.039062 104.96875 62.507812 102.527344 57.492188 C 101.390625 53.535156 99.730469 49.792969 97.4375 46.429688 Z M 26.707031 62.328125 C 26.285156 64.582031 25.976562 66.878906 25.976562 69.246094 C 25.972656 70.632812 26.296875 71.960938 26.445312 73.324219 C 26.433594 73.5 26.402344 73.675781 26.390625 73.851562 C 26.246094 72.535156 25.910156 71.257812 25.910156 69.917969 C 25.90625 69.6875 25.972656 69.476562 25.976562 69.246094 C 26.015625 66.886719 26.242188 64.574219 26.707031 62.328125 Z M 26.546875 79.597656 C 26.566406 79.667969 26.601562 79.734375 26.621094 79.804688 C 26.621094 79.8125 26.621094 79.820312 26.625 79.832031 C 26.601562 79.753906 26.566406 79.679688 26.546875 79.597656 Z M 27.617188 82.445312 C 28.191406 84.0625 28.644531 85.71875 29.429688 87.25 C 28.722656 85.84375 28.1875 84.367188 27.664062 82.875 C 27.636719 82.734375 27.644531 82.585938 27.617188 82.445312 Z M 29.703125 87.710938 C 30.992188 90.144531 32.546875 92.453125 34.34375 94.601562 C 32.554688 92.464844 30.988281 90.179688 29.703125 87.710938 Z M 29.351562 88.53125 C 36.21875 101.238281 50.023438 109.984375 66.066406 109.949219 C 73.5625 109.929688 80.542969 107.898438 86.640625 104.550781 C 86.683594 104.59375 86.738281 104.628906 86.796875 104.644531 C 86.859375 104.664062 86.921875 104.664062 86.984375 104.652344 C 93.550781 101.074219 98.777344 95.886719 102.332031 89.789062 C 102.359375 89.84375 102.40625 89.890625 102.457031 89.925781 C 96.015625 104.027344 81.445312 113.425781 65.03125 113.414062 C 59.648438 113.410156 54.503906 112.296875 49.726562 110.433594 C 42.859375 107.199219 37.109375 102.253906 33.097656 96.09375 C 34.105469 97.101562 34.976562 98.207031 36.101562 99.113281 C 36.136719 99.144531 36.179688 99.164062 36.222656 99.179688 C 36.269531 99.191406 36.316406 99.195312 36.363281 99.191406 C 36.410156 99.1875 36.457031 99.171875 36.5 99.148438 C 36.539062 99.128906 36.578125 99.097656 36.609375 99.058594 C 36.667969 98.988281 36.695312 98.890625 36.683594 98.796875 C 36.675781 98.703125 36.628906 98.617188 36.554688 98.558594 C 34.753906 97.105469 33.234375 95.421875 31.746094 93.722656 C 30.820312 92.050781 30.015625 90.332031 29.351562 88.53125 Z M 29.953125 92.929688 C 30.3125 93.375 30.796875 93.726562 31.175781 94.15625 C 33.109375 97.632812 35.414062 100.886719 38.304688 103.652344 C 34.914062 100.582031 32.09375 96.980469 29.953125 92.929688 Z M 34.976562 95.3125 C 36.703125 97.273438 38.65625 99.066406 40.78125 100.699219 C 38.652344 99.085938 36.722656 97.292969 34.976562 95.3125 Z M 38.503906 103.828125 C 39.53125 104.796875 40.722656 105.589844 41.851562 106.453125 C 40.804688 105.757812 39.851562 104.949219 38.875 104.160156 C 38.75 104.050781 38.628906 103.9375 38.503906 103.828125 Z M 92.109375 106.886719 C 91.539062 107.289062 90.933594 107.636719 90.34375 108.011719 C 90.921875 107.625 91.546875 107.300781 92.109375 106.886719 Z M 92.109375 106.886719 " fill-opacity="1" fill-rule="nonzero"/></g></svg>